<svg width="80" height="80" viewBox="0 0 80 80" fill="none" xmlns="http://www.w3.org/2000/svg">
<g clip-path="url(#clip0_382_551)">
<path d="M22.8395 11.0706L22.4942 14.8191C22.4298 15.5163 22.7296 16.1783 23.296 16.59C23.8625 17.0016 24.585 17.0822 25.2285 16.8056L28.6867 15.3188L32.145 16.8058C32.3978 16.9144 32.6626 16.9678 32.9254 16.9678C33.3318 16.9678 33.7332 16.84 34.0773 16.59C34.6437 16.1783 34.9435 15.5163 34.8792 14.8191L34.5339 11.0706L37.0167 8.24109C37.4785 7.71469 37.625 7.00266 37.4085 6.33672C37.1921 5.67063 36.6551 5.18109 35.9721 5.02672L32.3004 4.19672L30.3767 0.96125C30.0187 0.359375 29.387 0 28.6867 0C27.9864 0 27.3546 0.359375 26.9967 0.96125L25.0729 4.19688L21.4012 5.02672C20.7181 5.18094 20.1812 5.67078 19.9648 6.33672C19.7484 7.00266 19.8948 7.71453 20.3568 8.24109L22.8395 11.0706ZM25.7481 6.44719C26.2721 6.32875 26.7301 5.99594 27.0046 5.53422L28.6868 2.70516L30.369 5.53437C30.6435 5.99609 31.1015 6.32875 31.6256 6.44719L34.836 7.17297L32.6651 9.64688C32.3106 10.0509 32.1357 10.5894 32.1851 11.1241L32.4871 14.4017L29.4631 13.1016C29.2164 12.9955 28.9517 12.9425 28.6868 12.9425C28.422 12.9425 28.157 12.9955 27.9101 13.1017L24.8862 14.4017L25.1882 11.1241C25.2375 10.5891 25.0626 10.0506 24.7082 9.64703L22.5373 7.17266L25.7481 6.44719Z" fill="white"/>
<path d="M5.09741 16.8175L7.846 15.636L10.5946 16.8175C10.829 16.9185 11.0743 16.968 11.318 16.968C11.6946 16.968 12.0668 16.8494 12.3857 16.6177C12.9108 16.2363 13.1888 15.6225 13.1291 14.9761L12.8544 11.9969L14.8279 9.74801C15.2558 9.26004 15.3916 8.6002 15.1912 7.98286C14.9905 7.36567 14.4929 6.91176 13.8598 6.76864L10.9415 6.10911L9.41241 3.53754C9.08069 2.97973 8.49507 2.64661 7.846 2.64661C7.19694 2.64661 6.61147 2.97973 6.2796 3.53754L4.75069 6.10926L1.83225 6.76879C1.19913 6.91192 0.701473 7.36583 0.500848 7.98301C0.300223 8.60036 0.436004 9.2602 0.864285 9.74833L2.83757 11.9969L2.56304 14.9761C2.5035 15.6225 2.78147 16.2361 3.30663 16.6177C3.83163 16.9993 4.50132 17.0738 5.09741 16.8175ZM3.20429 8.86145L5.486 8.34583C5.97147 8.23598 6.39585 7.9277 6.65054 7.49973L7.84585 5.48911L9.04163 7.50004C9.29616 7.92786 9.72054 8.23614 10.2062 8.34583L12.4877 8.86145L10.9448 10.6197C10.6165 10.994 10.4544 11.4929 10.4999 11.9889L10.7146 14.318L8.56554 13.3941C8.10819 13.1975 7.5835 13.1974 7.12616 13.3943L4.97725 14.3182L5.19194 11.9891C5.23757 11.4935 5.07569 10.9946 4.7471 10.6196L3.20429 8.86145Z" fill="white"/>
<path d="M43.4939 11.9969L43.2194 14.9761C43.1598 15.6225 43.4378 16.2361 43.963 16.6177C44.4881 16.9993 45.1577 17.0738 45.7539 16.8174L48.5025 15.6358L51.2511 16.8175C51.4853 16.9183 51.7308 16.9679 51.9745 16.9679C52.3511 16.9679 52.7233 16.8493 53.0422 16.6175C53.5673 16.2361 53.8453 15.6224 53.7856 14.976L53.5111 11.9969L55.4845 9.74801C55.9125 9.26004 56.0483 8.6002 55.8478 7.98286C55.6472 7.36567 55.1495 6.91176 54.5164 6.76864L51.598 6.10911L50.0687 3.53754C49.737 2.97973 49.1514 2.64661 48.5023 2.64661C47.8533 2.64661 47.2678 2.97973 46.9361 3.53754L45.4072 6.10926L42.4887 6.76879C41.8556 6.91192 41.358 7.36583 41.1573 7.98301C40.9567 8.60036 41.0925 9.2602 41.5208 9.74817L43.4939 11.9969ZM46.1425 8.34583C46.628 8.23598 47.0523 7.9277 47.307 7.49973L48.5023 5.48911L49.698 7.50004C49.9525 7.92786 50.377 8.23614 50.8625 8.34583L53.1441 8.86145L51.6011 10.6197C51.2728 10.994 51.1108 11.4929 51.1562 11.9889L51.3709 14.3182L49.2219 13.3941C48.7645 13.1975 48.2398 13.1974 47.7825 13.3943L45.6336 14.3182L45.8483 11.9891C45.8941 11.4933 45.7319 10.9943 45.4033 10.6197L43.8605 8.86145L46.1425 8.34583Z" fill="white"/>
<path d="M79.5898 62.632C79.5898 61.3528 79.0426 60.1992 78.17 59.3928C79.0426 58.5864 79.5898 57.4326 79.5898 56.1536C79.5898 53.7214 77.6109 51.7425 75.1804 51.7425L63.4073 51.7245C62.5131 51.7231 61.7856 50.9944 61.7856 50.1001V41.735C61.7856 39.5944 60.7043 37.6348 58.8933 36.4934C58.025 35.9459 56.9759 35.8406 56.0148 36.2044C55.0526 36.5684 54.3351 37.3433 54.0461 38.33L49.3675 54.3055C48.7681 56.3523 46.86 57.7817 44.7272 57.7817H42.699V57.1128C42.699 55.7578 41.5967 54.6555 40.2417 54.6555H32.4911C31.1361 54.6555 30.0337 55.7578 30.0337 57.1128V64.6381H10.0145C8.98185 64.6381 8.01794 64.1769 7.37013 63.3725C6.72232 62.5683 6.47701 61.5283 6.69701 60.5192C7.65232 56.1389 10.1014 52.1775 13.5929 49.3653C17.0847 46.553 21.4767 45.0042 25.9601 45.0042H28.1914C34.6842 45.0042 40.8597 47.8109 45.1343 52.7047C45.5601 53.1923 46.3003 53.242 46.7879 52.8164C47.2754 52.3906 47.3253 51.6503 46.8995 51.163C43.544 47.3216 39.1273 44.6462 34.2783 43.4197C38.1125 41.277 40.7122 37.1791 40.7122 32.4834C40.7122 25.5794 35.0954 19.9626 28.1915 19.9626C25.3239 19.9626 22.5214 20.9569 20.3 22.7622C19.7976 23.1703 19.7214 23.9084 20.1297 24.4108C20.5379 24.9128 21.2761 24.9892 21.7781 24.5811C23.5829 23.1142 25.8606 22.3064 28.1915 22.3064C33.8031 22.3064 38.3684 26.8719 38.3684 32.4834C38.3684 38.095 33.8031 42.6605 28.1915 42.6605C22.5798 42.6605 18.0145 38.095 18.0145 32.4834C18.0145 30.9416 18.3501 29.4611 19.012 28.0831C19.2923 27.4998 19.0465 26.7997 18.4631 26.5194C17.8797 26.2392 17.1797 26.485 16.8993 27.0684C16.084 28.7655 15.6706 30.5873 15.6706 32.4834C15.6706 36.9589 18.0323 40.8911 21.5734 43.1053C18.1339 43.8062 14.8778 45.3211 12.1228 47.5398C8.21607 50.6866 5.47576 55.1186 4.40701 60.0197C4.03513 61.7251 4.44966 63.483 5.54466 64.8423C6.63951 66.2019 8.26872 66.9816 10.0143 66.9816H30.0336V76.8734C30.0336 78.2284 31.1359 79.3308 32.4909 79.3308H40.2415C41.5965 79.3308 42.6989 78.2284 42.6989 76.8734V76.8364H46.4764C49.0261 76.8364 51.4333 77.3211 53.6312 78.2767C56.184 79.3867 58.8897 79.9494 61.6684 79.9494L75.1786 80C77.6109 80 79.5897 78.0211 79.5897 75.5889C79.5897 74.3098 79.0425 73.1562 78.1698 72.3498C79.0425 71.5434 79.5897 70.3897 79.5897 69.1106C79.5897 67.8316 79.0425 66.6778 78.1698 65.8714C79.0425 65.0647 79.5898 63.9109 79.5898 62.632ZM40.3551 76.8736C40.3551 76.9361 40.3042 76.9872 40.2415 76.9872H32.4909C32.4283 76.9872 32.3773 76.9362 32.3773 76.8736V57.1126C32.3773 57.0501 32.4283 56.9991 32.4909 56.9991H40.2415C40.3042 56.9991 40.3551 57.05 40.3551 57.1126V76.8736ZM71.3317 60.5645H75.1787C76.3187 60.5645 77.2461 61.492 77.2461 62.6319C77.2461 63.7717 76.3186 64.6991 75.1787 64.6991H71.3317C70.6845 64.6991 70.1598 65.2236 70.1598 65.8709C70.1598 66.5183 70.6845 67.0428 71.3317 67.0428H75.1787C76.3187 67.0428 77.2461 67.9703 77.2461 69.1101C77.2461 70.25 76.3186 71.1775 75.1787 71.1775H71.3317C70.6845 71.1775 70.1598 71.702 70.1598 72.3494C70.1598 72.9967 70.6845 73.5212 71.3317 73.5212H75.1787C76.3187 73.5212 77.2461 74.4487 77.2461 75.5884C77.2461 76.7284 76.3186 77.6558 75.1829 77.6558L61.6726 77.6053C59.2129 77.6053 56.8218 77.1078 54.5656 76.127C52.0711 75.0423 49.3495 74.4923 46.4764 74.4923H42.6989V60.125H44.727C47.8936 60.125 50.7265 58.0026 51.6165 54.9639L56.2951 38.9883C56.3756 38.7133 56.5758 38.4973 56.8442 38.3958C57.1114 38.2948 57.4026 38.3237 57.6436 38.4756C58.7697 39.1853 59.4418 40.4036 59.4418 41.7344V50.0995C59.4418 52.284 61.2192 54.0641 63.4037 54.0676L75.1786 54.0856C76.3186 54.0856 77.2459 55.0131 77.2459 56.153C77.2459 57.2928 76.3184 58.2203 75.1786 58.2203H71.3315C70.6843 58.2203 70.1597 58.7448 70.1597 59.3922C70.1597 60.0395 70.6843 60.5645 71.3317 60.5645Z" fill="white"/>
</g>
<defs>
<clipPath id="clip0_382_551">
<rect width="80" height="80" fill="white"/>
</clipPath>
</defs>
</svg>
