<svg width="90" height="90" viewBox="0 0 90 90" fill="none" xmlns="http://www.w3.org/2000/svg">
<g clip-path="url(#clip0_389_756)">
<path d="M20.0112 25.0239V28.2399C20.0112 29.2373 20.3997 30.1748 21.1049 30.8801C21.8101 31.5853 22.7477 31.9736 23.7449 31.9736H37.6669V39.335C37.6669 41.8806 39.7268 43.9411 42.2727 43.9409H51.3976C52.1258 43.9409 52.7159 43.3506 52.7159 42.6226C52.7159 41.8945 52.1258 41.3043 51.3976 41.3043H42.2727C41.1841 41.3043 40.3035 40.4236 40.3035 39.335V31.6702C40.3035 25.4605 45.3651 20.1779 51.7957 20.1779H58.2122C64.6203 20.1779 69.7043 25.4408 69.7043 31.6702V39.335C69.7043 40.4208 68.821 41.3043 67.7352 41.3043H57.5499C56.8217 41.3043 56.2316 41.8945 56.2316 42.6226C56.2316 43.3506 56.8217 43.9409 57.5499 43.9409H67.7352C70.2748 43.9409 72.3409 41.8746 72.3409 39.335V31.9737H86.2631C88.3217 31.9737 89.9965 30.2989 89.9965 28.2403V25.0243C89.9965 20.1648 86.7482 16.0518 82.3097 14.7365C83.764 13.325 84.6705 11.3519 84.6705 9.16999C84.6705 4.89073 81.1889 1.40914 76.9098 1.40914C72.6304 1.40914 69.149 4.89073 69.149 9.16999C69.149 11.3514 70.0549 13.3241 71.5088 14.7354C68.9592 15.4898 66.7614 17.1755 65.3661 19.4937C64.142 18.7717 62.8003 18.2302 61.3771 17.9032C63.6425 16.052 65.0917 13.2376 65.0917 10.0905C65.0917 4.52828 60.5666 0.00292969 55.0041 0.00292969C49.4417 0.00292969 44.9165 4.52828 44.9165 10.0905C44.9165 13.2376 46.3658 16.0518 48.6312 17.9032C47.208 18.2303 45.8663 18.7717 44.6422 19.4937C43.247 17.1755 41.0493 15.4898 38.4995 14.7354C39.9532 13.3241 40.8591 11.3514 40.8591 9.17016C40.8591 4.8909 37.3775 1.40931 33.0984 1.40931C28.819 1.40931 25.3376 4.8909 25.3376 9.17016C25.3376 11.3521 26.2441 13.3252 27.6984 14.7366C23.2594 16.0514 20.0112 20.1644 20.0112 25.0239ZM76.9095 4.04542C79.7349 4.04542 82.0335 6.34422 82.0335 9.16964C82.0335 11.9952 79.7349 14.2939 76.9095 14.2939C74.0841 14.2939 71.7853 11.9951 71.7853 9.16964C71.7853 6.34422 74.0841 4.04542 76.9095 4.04542ZM74.5525 16.9307H79.2665C83.7291 16.9307 87.3597 20.5613 87.3597 25.0239V28.2399C87.3597 28.8447 86.8675 29.3367 86.2629 29.3367H72.1446C71.5965 26.0534 69.9129 23.1514 67.5116 21.0466C68.9419 18.5181 71.6113 16.9307 74.5525 16.9307ZM47.5528 10.0902C47.5528 5.98177 50.8954 2.63921 55.0038 2.63921C59.1122 2.63921 62.4548 5.98177 62.4548 10.0902C62.4548 14.1986 59.1122 17.5411 55.0038 17.5411C50.8954 17.5411 47.5528 14.1986 47.5528 10.0902ZM33.0981 4.04542C35.9235 4.04542 38.2221 6.34422 38.2221 9.16964C38.2221 11.9952 35.9235 14.2939 33.0981 14.2939C30.2727 14.2939 27.9739 11.9951 27.9739 9.16964C27.9739 6.34422 30.2727 4.04542 33.0981 4.04542ZM30.7411 16.9307H35.4551C38.3963 16.9307 41.0655 18.5181 42.4959 21.0466C40.0945 23.1514 38.4109 26.0534 37.8628 29.3369H23.7447C23.4517 29.3369 23.1764 29.2228 22.9692 29.0156C22.7619 28.8084 22.6479 28.5329 22.6479 28.2399V25.0239C22.6479 20.5611 26.2785 16.9307 30.7411 16.9307Z" fill="#E7F1FD"/>
<path d="M89.3681 62.3877C88.2345 60.0207 86.2903 58.7249 83.7457 58.6398C81.8721 58.5797 83.2221 58.3716 59.6743 65.3386C59.6216 63.3355 58.6843 60.9304 55.5151 59.6655C53.4089 58.8246 51.6099 58.0995 50.0595 57.4746C42.1848 54.3006 40.524 53.6313 37.6104 53.5806C37.5919 53.5799 37.5749 53.5801 37.5545 53.5796C27.5636 53.613 25.5177 53.693 20.31 56.0241C17.6723 57.2044 15.1252 58.6534 12.7392 60.3306C11.3324 61.3194 9.80249 62.0453 8.19203 62.4881L2.1471 64.15C0.882746 64.4976 0 65.6561 0 66.9668V87.0761C0 88.0364 0.471958 88.9353 1.26225 89.4806C2.05376 90.0269 3.06201 90.1475 3.95829 89.8072L12.7838 86.4565C13.4644 86.1981 13.8067 85.4368 13.5484 84.7561C13.2899 84.0755 12.5284 83.733 11.848 83.9914L3.02246 87.3421C2.9068 87.386 2.81558 87.3489 2.75986 87.3103C2.70378 87.2716 2.63681 87.1995 2.63681 87.0759V66.9668C2.63681 66.8391 2.72294 66.726 2.84599 66.6923L8.89074 65.0303C10.7946 64.5069 12.5994 63.6514 14.2551 62.4877C16.5034 60.9073 18.9028 59.5424 21.387 58.4308C26.1104 56.3166 27.8571 56.2489 37.5339 56.2164H37.5381C39.9811 56.2551 41.3695 56.8147 49.0738 59.92C50.6266 60.5458 52.4283 61.2719 54.5376 62.114C57.9132 63.4612 56.8543 66.3696 56.8543 66.7535C56.8543 66.7536 56.8378 66.8044 56.8378 66.8046C56.7605 67.0665 56.0078 69.3469 53.4856 68.7287C49.7097 67.8037 40.7135 65.6373 40.623 65.6155C39.9152 65.445 39.2031 65.8806 39.0326 66.5886C38.8621 67.2964 39.2978 68.0085 40.0057 68.1788C40.0962 68.2006 49.0873 70.3658 52.8582 71.2897C55.7592 72.0005 58.0158 70.6182 59.0979 68.2588C81.6153 61.5971 80.6213 61.8966 80.7971 61.8286C82.4859 61.1689 85.5321 60.512 86.9807 63.5071C88.4537 66.8925 85.1073 68.8745 84.3314 69.2792L55.6926 81.9472C55.6814 81.9523 55.6699 81.9574 55.6587 81.9628C55.6462 81.9688 55.6336 81.9749 55.6213 81.9813C51.7526 83.9644 47.9615 83.035 46.4811 82.5293L38.2971 79.2624C34.2524 77.6482 29.2088 77.6769 24.096 79.3432C24.0762 79.3497 24.0561 79.3568 24.0366 79.3641L17.5994 81.8081C16.9188 82.0665 16.5765 82.8278 16.8347 83.5086C17.0931 84.1892 17.8546 84.5314 18.5352 84.2732L24.9426 81.8406C29.3952 80.3958 33.9049 80.3485 37.3198 81.7113L45.5337 84.9904C45.553 84.9981 45.5729 85.0055 45.5927 85.0123C47.3675 85.6242 52.0055 86.7812 56.7909 84.3446C56.8432 84.3214 85.4516 71.6681 85.5026 71.642C87.9077 70.4085 91.4321 67.0795 89.3857 62.4264C89.38 62.4134 89.3741 62.4004 89.3681 62.3877Z" fill="#E7F1FD"/>
</g>
<defs>
<clipPath id="clip0_389_756">
<rect width="90" height="90" fill="white"/>
</clipPath>
</defs>
</svg>
