<svg width="80" height="80" viewBox="0 0 80 80" fill="none" xmlns="http://www.w3.org/2000/svg">
<path d="M78.75 45.0689V34.9311C78.75 34.6338 78.6441 34.3463 78.4512 34.1201C78.2584 33.8939 77.9912 33.7438 77.6977 33.6969L71.4962 32.7042C70.6934 29.2217 69.3278 25.9278 67.4278 22.8911L71.1133 17.8008C71.2876 17.56 71.3705 17.265 71.3469 16.9687C71.3234 16.6724 71.195 16.3941 70.9848 16.1839L63.8163 9.01547C63.606 8.8053 63.3278 8.67692 63.0314 8.65335C62.7351 8.62978 62.44 8.71258 62.1992 8.88688L57.1089 12.5723C54.0713 10.672 50.7777 9.30656 47.2958 8.50375L46.3031 2.3025C46.2561 2.00893 46.1061 1.74172 45.8799 1.54882C45.6536 1.35593 45.3661 1.24998 45.0687 1.25H34.9309C34.6337 1.25001 34.3462 1.35596 34.12 1.54882C33.8938 1.74168 33.7437 2.00883 33.6967 2.30234L32.7041 8.50359C29.2217 9.30641 25.9278 10.6719 22.8908 12.572L17.8006 8.88672C17.5598 8.71242 17.2648 8.62963 16.9684 8.65319C16.6721 8.67676 16.3938 8.80514 16.1836 9.01531L9.015 16.1837C8.8048 16.394 8.6764 16.6722 8.65287 16.9686C8.62933 17.265 8.71218 17.56 8.88656 17.8008L12.572 22.8909C10.6711 25.9297 9.30562 29.223 8.50344 32.7041L2.30219 33.6967C2.00868 33.7438 1.74154 33.8939 1.54871 34.1201C1.35587 34.3463 1.24997 34.6338 1.25 34.9311V45.0689C1.24998 45.3662 1.35591 45.6537 1.54878 45.8799C1.74165 46.1061 2.00882 46.2562 2.30234 46.3031L8.50359 47.2958C9.30641 50.778 10.672 54.0719 12.5722 57.1089L8.88672 62.1992C8.71238 62.44 8.62955 62.735 8.65309 63.0313C8.67663 63.3276 8.80499 63.6059 9.01516 63.8161L16.1837 70.9845C16.394 71.1947 16.6722 71.3231 16.9686 71.3466C17.2649 71.3702 17.56 71.2874 17.8008 71.1131L22.8909 67.4277C25.9297 69.3286 29.2234 70.6942 32.7042 71.4962L33.6969 77.6975C33.7439 77.991 33.8939 78.2582 34.1201 78.451C34.3463 78.6439 34.6338 78.7498 34.9311 78.7498H45.0689C45.3662 78.7498 45.6537 78.6439 45.8799 78.451C46.1061 78.2582 46.2561 77.991 46.3031 77.6975L47.1938 72.1342C50.4495 76.1661 55.4303 78.7498 61.0041 78.7498C70.7892 78.75 78.75 70.7892 78.75 61.0041C78.75 55.4303 76.1661 50.4494 72.1342 47.1936L77.6975 46.3031C77.9911 46.2562 78.2583 46.1062 78.4512 45.88C78.6441 45.6538 78.7501 45.3662 78.75 45.0689ZM62.3286 43.3077C61.8878 43.2748 61.446 43.2584 61.0041 43.2583C58.3206 43.2583 55.7752 43.8581 53.4927 44.9289V42.9523C53.4927 39.9987 51.2561 37.7502 47.3561 36.7828C46.0167 36.4505 44.657 36.2062 43.2856 36.0517C45.3558 34.5988 46.7594 31.8197 46.7594 28.6352C46.7594 24.328 44.1694 21.6522 40.0002 21.6522C35.8308 21.6522 33.2408 24.328 33.2408 28.6352C33.2408 31.8128 34.6384 34.5866 36.7012 36.042C35.3296 36.194 33.9704 36.4423 32.6338 36.7853C28.6831 37.8008 26.5073 39.9909 26.5073 42.9523V54.0737C26.5073 54.4053 26.639 54.7232 26.8735 54.9576C27.1079 55.1921 27.4258 55.3237 27.7573 55.3237H44.1906C43.5863 57.108 43.2583 59.0184 43.2583 61.0041C43.2583 61.4495 43.2752 61.8913 43.3077 62.3286C42.2124 62.4895 41.107 62.5704 40 62.5706C27.5545 62.5706 17.4294 52.4455 17.4294 39.9998C17.4294 27.5542 27.5545 17.4292 40 17.4292C52.4455 17.4292 62.5706 27.5545 62.5706 40C62.5706 41.1061 62.4892 42.2142 62.3286 43.3077ZM46.6794 44.2589C46.3479 44.2589 46.0299 44.3906 45.7955 44.625C45.5611 44.8594 45.4294 45.1774 45.4294 45.5089V52.5055C45.3717 52.6108 45.3155 52.717 45.2598 52.8236H34.5703V45.5089C34.5703 45.1774 34.4386 44.8594 34.2042 44.625C33.9698 44.3906 33.6518 44.2589 33.3203 44.2589C32.9888 44.2589 32.6708 44.3906 32.4364 44.625C32.202 44.8594 32.0703 45.1774 32.0703 45.5089V52.8236H29.0072V42.9522C29.0072 40.7589 31.3177 39.7047 33.2559 39.2064C37.6506 38.0763 42.1917 38.0772 46.7541 39.2091C48.337 39.6017 50.9925 40.61 50.9925 42.9522V46.3598C49.874 47.1271 48.8463 48.019 47.9294 49.0184V45.5088C47.9293 45.1773 47.7976 44.8594 47.5632 44.625C47.3288 44.3906 47.0109 44.2589 46.6794 44.2589ZM40 34.6258C37.6514 34.6258 35.7406 31.9383 35.7406 28.635C35.7406 24.7344 38.4092 24.152 40 24.152C41.5908 24.152 44.2592 24.7345 44.2592 28.635C44.2592 31.9384 42.3484 34.6258 40 34.6258ZM76.25 61.0041C76.25 69.4108 69.4108 76.25 61.0041 76.25C52.5975 76.25 45.7583 69.4108 45.7583 61.0041C45.7583 52.5973 52.5975 45.7583 61.0041 45.7583C69.4108 45.7583 76.25 52.5975 76.25 61.0041ZM76.25 44.0031L70.2577 44.9622C69.9509 45.0117 69.6736 45.1738 69.48 45.4169C68.0116 44.6151 66.4365 44.0265 64.8022 43.6689C64.9806 42.4541 65.0704 41.2279 65.0706 40C65.0706 26.1759 53.8239 14.9294 39.9998 14.9294C26.1758 14.9294 14.9292 26.1761 14.9292 40C14.9292 53.8239 26.1759 65.0708 39.9998 65.0708C41.2267 65.0708 42.4558 64.9805 43.6688 64.8023C44.0265 66.4367 44.6151 68.0119 45.4169 69.4803C45.1738 69.6739 45.0117 69.9512 44.9622 70.258L44.003 76.25H35.9969L35.0377 70.2578C34.9975 70.0065 34.8815 69.7734 34.7052 69.5898C34.529 69.4062 34.3009 69.2808 34.0514 69.2303C30.2895 68.4691 26.7531 67.003 23.5405 64.8727C23.3284 64.7321 23.0784 64.6596 22.824 64.6648C22.5696 64.6701 22.3228 64.7528 22.1167 64.902L17.198 68.4634L11.5369 62.8022L15.0981 57.8833C15.2474 57.6772 15.3302 57.4304 15.3354 57.1759C15.3407 56.9215 15.2681 56.6715 15.1275 56.4594C12.9981 53.2491 11.5319 49.7127 10.7698 45.9486C10.7193 45.6992 10.5939 45.4711 10.4103 45.2948C10.2267 45.1186 9.99365 45.0026 9.74234 44.9623L3.75 44.0031V35.9969L9.74219 35.0377C9.99351 34.9975 10.2266 34.8815 10.4102 34.7052C10.5938 34.529 10.7192 34.3009 10.7697 34.0514C11.5311 30.2894 12.9972 26.7531 15.1273 23.5406C15.268 23.3285 15.3406 23.0785 15.3354 22.8241C15.3301 22.5696 15.2473 22.3228 15.098 22.1167L11.5367 17.1981L17.1978 11.5369L22.1166 15.0981C22.3227 15.2474 22.5695 15.3301 22.8239 15.3354C23.0784 15.3406 23.3284 15.268 23.5405 15.1273C26.7508 12.9981 30.2872 11.5319 34.0514 10.7697C34.3008 10.7191 34.5289 10.5937 34.7051 10.4101C34.8814 10.2265 34.9974 9.99347 35.0377 9.74219L35.9969 3.75H44.003L44.9622 9.74219C45.0024 9.99349 45.1184 10.2265 45.2947 10.4101C45.4709 10.5937 45.699 10.7192 45.9484 10.7697C49.7117 11.5317 53.2481 12.998 56.4594 15.1273C56.6715 15.268 56.9214 15.3405 57.1758 15.3352C57.4303 15.33 57.677 15.2472 57.8831 15.098L62.8019 11.5367L68.4631 17.198L64.9019 22.1167C64.7526 22.3228 64.6698 22.5696 64.6646 22.8241C64.6593 23.0785 64.7319 23.3285 64.8725 23.5406C67.0017 26.7506 68.4678 30.287 69.2302 34.0514C69.2807 34.3008 69.4062 34.5289 69.5898 34.7051C69.7734 34.8814 70.0064 34.9974 70.2577 35.0377L76.25 35.9969V44.0031ZM66.0364 54.123L58.5673 61.7008L55.972 59.1055C55.2775 58.4109 54.3541 58.0283 53.3717 58.0283C52.3894 58.0283 51.4659 58.4108 50.7714 59.1053C50.4288 59.446 50.1572 59.8512 49.9722 60.2975C49.7873 60.7439 49.6928 61.2225 49.6941 61.7056C49.6927 62.1888 49.7872 62.6674 49.9721 63.1137C50.1571 63.56 50.4287 63.9653 50.7713 64.3059L55.9772 69.5119C56.6942 70.2288 57.6358 70.5872 58.5775 70.587C59.5192 70.587 60.4611 70.2286 61.178 69.5117C63.833 66.8566 69.2533 61.3081 71.2459 59.2956C71.5869 58.9546 71.8569 58.5494 72.0402 58.1034C72.2235 57.6574 72.3165 57.1794 72.3139 56.6972C72.3139 56.215 72.2182 55.7375 72.0324 55.2925C71.8466 54.8475 71.5744 54.4438 71.2316 54.1047C69.7966 52.6775 67.4677 52.6839 66.0364 54.123ZM69.4713 57.535C67.4706 59.5555 62.0548 65.0995 59.41 67.7442C58.9509 68.2033 58.2039 68.2033 57.745 67.7442L52.5392 62.5383H52.5391C52.4294 62.4292 52.3424 62.2995 52.2832 62.1566C52.2241 62.0137 52.1938 61.8605 52.1942 61.7058C52.1942 61.3914 52.3167 61.0956 52.5392 60.8733C52.6483 60.7636 52.778 60.6766 52.9209 60.6175C53.0638 60.5583 53.217 60.528 53.3717 60.5284C53.6863 60.5284 53.9817 60.6509 54.2042 60.8733L57.69 64.3589C57.9244 64.5933 58.2423 64.725 58.5738 64.725H58.5783C58.7432 64.7244 58.9063 64.6912 59.0583 64.6272C59.2103 64.5633 59.3482 64.4699 59.4639 64.3525L67.8128 55.8822C68.268 55.4244 69.0108 55.4225 69.4688 55.8777C69.5781 55.9858 69.6649 56.1145 69.7241 56.2565C69.7834 56.3984 69.8139 56.5506 69.8139 56.7044C69.8145 57.0169 69.6937 57.3112 69.4713 57.535Z" fill="#009936"/>
</svg>
