<svg width="145" height="38" viewBox="0 0 145 38" fill="none" xmlns="http://www.w3.org/2000/svg">
<path fill-rule="evenodd" clip-rule="evenodd" d="M5.52134 11.2687H5.68608C6.3042 10.0846 7.16941 9.14547 8.28199 8.45148C9.39456 7.75737 10.7131 7.43066 12.2377 7.43066C12.7733 7.43066 13.309 7.51239 13.7624 7.63494V12.9426C13.5975 12.9426 13.2679 12.9018 12.8145 12.861C12.3201 12.8202 11.8668 12.7793 11.496 12.7793C7.66386 12.7793 5.76856 14.7391 5.76856 18.6588V29.5602H0V7.9614H5.52134V11.2687Z" fill="#FEFEFE"/>
<path fill-rule="evenodd" clip-rule="evenodd" d="M37.8927 14.4941C37.6868 13.4735 37.1922 12.6569 36.4093 12.0853C35.6265 11.5137 34.6786 11.2278 33.6074 11.2278C32.5361 11.2278 31.6708 11.4319 31.0114 11.8811C30.3524 12.3303 30.0225 12.9835 30.0225 13.8001C30.0225 14.4941 30.3524 15.025 30.9704 15.3516C31.5885 15.6781 32.5774 15.9641 33.8546 16.1681L36.0797 16.4948C38.5108 16.903 40.4062 17.5563 41.766 18.4954C43.1257 19.4344 43.7849 20.9861 43.7849 23.15C43.7849 25.4364 42.8785 27.1512 41.0244 28.2943C39.1701 29.4785 36.7801 30.0501 33.7722 30.0501C30.9292 30.0501 28.5805 29.4377 26.7262 28.2127C24.8721 27.0288 23.7596 25.3548 23.3887 23.2724L28.7865 22.4966C29.0749 23.7624 29.6519 24.7423 30.517 25.3548C31.3823 25.9673 32.4949 26.2939 33.8546 26.2939C35.0908 26.2939 36.0797 26.0489 36.8214 25.518C37.5631 24.9874 37.934 24.2932 37.934 23.395C37.934 22.6601 37.6044 22.0885 36.9038 21.721C36.2033 21.3536 35.1731 21.0268 33.8135 20.8227L31.4236 20.4552C29.2398 20.0878 27.5092 19.4753 26.2318 18.5363C24.9133 17.5972 24.2541 16.1274 24.2541 14.0451C24.2541 12.6976 24.6661 11.5544 25.5313 10.5337C26.3553 9.51299 27.4679 8.73726 28.9102 8.20651C30.3524 7.67563 31.9181 7.43066 33.6074 7.43066C36.1209 7.43066 38.3047 8.00235 40.0765 9.18641C41.8484 10.3703 42.8785 11.8811 43.2081 13.7592L37.8927 14.4941Z" fill="#FEFEFE"/>
<path fill-rule="evenodd" clip-rule="evenodd" d="M51.4825 29.5603H45.7139V0H51.4825V16.3316L59.3527 7.96157H65.9865L57.828 16.25L66.9343 29.5603H60.2178L53.9136 20.047L51.4825 22.5377V29.5603Z" fill="#FEFEFE"/>
<path fill-rule="evenodd" clip-rule="evenodd" d="M82.5524 29.5602C82.3464 29.3561 82.2228 28.9477 82.0992 28.4169C81.9755 27.8861 81.9345 27.2738 81.9345 26.5388C81.3164 27.6412 80.3685 28.4986 79.05 29.1111C77.6903 29.7642 76.2482 30.0501 74.7235 30.0501C73.4463 30.0501 72.2514 29.8051 71.1388 29.2742C70.0263 28.7436 69.1197 28.0087 68.4605 27.0288C67.76 26.0897 67.4305 24.9465 67.4305 23.64C67.4305 21.4351 68.1721 19.8019 69.6965 18.7404C71.2212 17.6789 73.4874 16.9847 76.4954 16.6173C78.5969 16.3314 79.9977 16.0455 80.7807 15.6781C81.5224 15.3516 81.8932 14.8616 81.8932 14.1675C81.8932 13.351 81.5636 12.6976 80.9456 12.2077C80.3274 11.7587 79.3796 11.5137 78.1024 11.5137C77.0722 11.5137 76.1245 11.7994 75.3416 12.3303C74.5176 12.861 73.9408 13.6775 73.6109 14.7391L68.2957 13.9225C68.7489 11.9218 69.9027 10.3295 71.6745 9.14546C73.4463 8.00234 75.6301 7.43066 78.226 7.43066C81.3987 7.43066 83.7474 8.04304 85.3132 9.30884C86.8789 10.5745 87.6618 12.2486 87.6618 14.4125V25.2324C87.6618 26.4979 87.7029 27.3962 87.7855 28.0087C87.8266 28.6212 87.9914 29.1518 88.2387 29.5602H82.5524ZM81.8932 18.9037C81.5636 19.1894 81.0279 19.3937 80.2449 19.5569C79.4621 19.7612 78.432 19.9244 77.1547 20.0878C76.0009 20.2918 75.0944 20.6185 74.3939 21.1493C73.6936 21.6801 73.3227 22.4559 73.3227 23.395C73.3227 24.2523 73.6109 24.9465 74.188 25.3955C74.7235 25.8854 75.5065 26.1304 76.4954 26.1304C77.3607 26.1304 78.1848 25.9673 79.0088 25.5998C79.833 25.2324 80.5335 24.7015 81.0691 23.9256C81.6047 23.1907 81.8932 22.2516 81.8932 21.1493V18.9037Z" fill="#FEFEFE"/>
<path fill-rule="evenodd" clip-rule="evenodd" d="M108.309 7.43083C109.833 7.43083 111.152 7.6758 112.264 8.20667C113.377 8.73743 114.242 9.51316 114.86 10.4521H115.025V0H120.794V29.5603H115.272V26.7431H115.107C114.489 27.8455 113.583 28.7028 112.429 29.2337C111.234 29.7644 109.916 30.0503 108.432 30.0503C106.578 30.0503 104.93 29.6012 103.488 28.662C102.046 27.723 100.892 26.4165 100.068 24.7016C99.2436 23.0276 98.8318 21.0269 98.8318 18.7815C98.8318 16.5358 99.2436 14.5352 100.068 12.7794C100.851 11.0646 102.005 9.75814 103.447 8.81905C104.889 7.88009 106.496 7.43083 108.309 7.43083ZM110.039 25.6815C111.687 25.6815 113.006 25.0691 113.954 23.8851C114.901 22.7011 115.355 21.0269 115.355 18.7815C115.355 16.5358 114.901 14.8208 113.954 13.5961C113.006 12.412 111.687 11.7995 110.039 11.7995C108.391 11.7995 107.073 12.412 106.125 13.5961C105.177 14.7801 104.683 16.5358 104.683 18.7815C104.683 21.0269 105.177 22.7011 106.125 23.8851C107.073 25.0691 108.391 25.6815 110.039 25.6815Z" fill="#FEFEFE"/>
<path fill-rule="evenodd" clip-rule="evenodd" d="M144.794 23.15C144.258 25.0281 143.146 26.6613 141.415 28.0087C139.685 29.3561 137.253 30.0501 134.122 30.0501C131.897 30.0501 129.96 29.6011 128.312 28.6619C126.664 27.7637 125.387 26.4572 124.521 24.7423C123.656 23.0682 123.203 21.0677 123.203 18.7813C123.203 16.454 123.656 14.4533 124.521 12.7386C125.387 11.0645 126.623 9.75797 128.271 8.81889C129.878 7.87992 131.814 7.43066 134.081 7.43066C136.265 7.43066 138.16 7.87992 139.808 8.73727C141.456 9.59461 142.734 10.9012 143.64 12.5752C144.547 14.29 145 16.3314 145 18.6994C145 19.2303 145 19.6793 144.959 19.9652H129.054C129.095 21.8026 129.589 23.2316 130.496 24.334C131.402 25.4364 132.597 26.008 134.122 26.008C135.564 26.008 136.635 25.6814 137.377 24.9874C138.119 24.334 138.613 23.5582 138.902 22.6601L144.794 23.15ZM134.081 11.4319C132.639 11.4319 131.485 11.8811 130.62 12.8202C129.754 13.7592 129.26 14.9025 129.136 16.2906H139.066C138.943 14.8616 138.49 13.7185 137.624 12.7793C136.759 11.8811 135.564 11.4319 134.081 11.4319Z" fill="#FEFEFE"/>
<path fill-rule="evenodd" clip-rule="evenodd" d="M27.3387 33.6221H27.7852V37.0177H27.3387V33.6221Z" fill="#FEFEFE"/>
<path fill-rule="evenodd" clip-rule="evenodd" d="M29.1129 33.6221H29.5048L31.7116 36.3053V33.6221H32.1134V37.0177H31.7365L29.5148 34.315V37.0177H29.1129V33.6221Z" fill="#FEFEFE"/>
<path fill-rule="evenodd" clip-rule="evenodd" d="M33.5336 36.2505C33.8361 36.4422 34.1386 36.5699 34.451 36.6289C34.5552 36.6534 34.6594 36.6632 34.7685 36.6632C34.8775 36.6632 34.9866 36.6534 35.1056 36.6339C35.2198 36.6092 35.3189 36.5798 35.4082 36.5307C35.6114 36.4274 35.7107 36.2652 35.7107 36.044C35.7107 35.818 35.5421 35.6608 35.2049 35.5724C35.1106 35.5477 35.0014 35.5233 34.8924 35.5035L34.5452 35.4447C34.1039 35.3659 33.7965 35.2578 33.6227 35.1104C33.4592 34.9779 33.3797 34.8009 33.3797 34.5748C33.3797 34.2652 33.5286 34.0194 33.8262 33.8279C34.089 33.6558 34.4015 33.5723 34.7636 33.5723C35.1105 33.5723 35.4182 33.6264 35.6959 33.7393C35.7949 33.7788 35.8991 33.823 36.0033 33.882L35.8395 34.2751C35.6065 34.1325 35.3289 34.0441 35.0114 34.0048C34.9122 33.99 34.8131 33.9801 34.7189 33.9801C34.5056 33.9801 34.3171 34.0243 34.1485 34.1029C33.9601 34.2013 33.8609 34.3341 33.8609 34.5011C33.8609 34.6829 33.9848 34.8106 34.2278 34.8942C34.337 34.9336 34.461 34.9631 34.5998 34.9875L35.0313 35.0613C35.3933 35.1301 35.6463 35.2088 35.7899 35.2922C35.9288 35.3758 36.033 35.4691 36.0975 35.5771C36.1669 35.6804 36.2017 35.818 36.2017 35.9949C36.2017 36.167 36.1569 36.3242 36.0776 36.4617C35.9933 36.5993 35.8842 36.7125 35.7453 36.8009C35.4776 36.9777 35.1355 37.0662 34.7239 37.0662C34.3369 37.0662 33.97 36.9827 33.6328 36.8157C33.5188 36.7616 33.4146 36.7026 33.3204 36.6289L33.5336 36.2505Z" fill="#FEFEFE"/>
<path fill-rule="evenodd" clip-rule="evenodd" d="M37.3324 33.6221H37.7788V35.3765C37.7788 35.9956 37.9872 36.3938 38.4036 36.5756C38.5425 36.6346 38.7111 36.6689 38.9046 36.6689C39.0981 36.6689 39.2667 36.6393 39.4006 36.5852C39.5394 36.5263 39.6485 36.4478 39.7378 36.3396C39.9113 36.1381 39.9956 35.8384 39.9956 35.4501V33.6221H40.4468V35.3765C40.4468 36.1922 40.1494 36.718 39.5591 36.9488C39.3609 37.0276 39.1327 37.0668 38.8748 37.0668C38.6169 37.0668 38.3889 37.0276 38.2004 36.954C38.007 36.8802 37.8481 36.7721 37.7193 36.6346C37.4614 36.3495 37.3324 35.9562 37.3324 35.4501V33.6221Z" fill="#FEFEFE"/>
<path fill-rule="evenodd" clip-rule="evenodd" d="M44.6972 34.664C44.6972 35.17 44.4642 35.5189 43.9931 35.7106L44.6477 37.0177H44.1268L43.5367 35.8334C43.3781 35.858 43.2094 35.8728 43.036 35.8728H42.1432V37.0177H41.6968V33.6221H43.1052C43.611 33.6221 43.988 33.691 44.241 33.8237C44.5436 33.9907 44.6972 34.2709 44.6972 34.664ZM43.0954 35.4649C43.4574 35.4649 43.7252 35.4158 43.8987 35.3175C44.1171 35.1947 44.2213 34.9882 44.2213 34.6935C44.2213 34.315 43.9732 34.0988 43.4774 34.0448C43.3335 34.03 43.1846 34.025 43.0309 34.025H42.1432V35.4649H43.0954Z" fill="#FEFEFE"/>
<path fill-rule="evenodd" clip-rule="evenodd" d="M47.1052 33.6221H47.3581L48.841 37.0177H48.3501L48.0276 36.2757H46.3116L45.9596 37.0177H45.4985L47.1052 33.6221ZM47.854 35.8728L47.5416 35.1553C47.507 35.0667 47.4674 34.9735 47.4276 34.8802L47.3335 34.6099C47.2739 34.4329 47.2342 34.3101 47.2244 34.2463H47.1946C47.1797 34.3101 47.1548 34.4034 47.1102 34.5213C47.1102 34.5213 47.0655 34.6246 46.9862 34.8359C46.9465 34.9244 46.907 35.0128 46.8623 35.1062L46.5002 35.8728H47.854Z" fill="#FEFEFE"/>
<path fill-rule="evenodd" clip-rule="evenodd" d="M49.7826 33.6221H50.1744L52.3812 36.3053V33.6221H52.7829V37.0177H52.4061L50.1844 34.315V37.0177H49.7826V33.6221Z" fill="#FEFEFE"/>
<path fill-rule="evenodd" clip-rule="evenodd" d="M56.8811 34.3242C56.6132 34.0882 56.266 33.9705 55.8495 33.9705C55.4625 33.9705 55.1402 34.0933 54.8725 34.3437C54.6047 34.5944 54.4708 34.9089 54.4708 35.2824C54.4708 35.6707 54.6096 35.9949 54.8874 36.2652C55.1602 36.5307 55.4974 36.6682 55.8892 36.6682C56.1767 36.6682 56.4595 36.5944 56.7471 36.4518C56.8315 36.4079 56.9008 36.3636 56.9653 36.3143L57.1389 36.6435C56.9008 36.8451 56.5934 36.9777 56.2214 37.0367C56.0974 37.0564 55.9734 37.0662 55.8495 37.0662C55.5916 37.0662 55.3535 37.0219 55.1305 36.9385C54.9072 36.8549 54.7089 36.7369 54.5402 36.5845C54.3717 36.4372 54.2378 36.2554 54.1436 36.044C54.0443 35.8378 53.9947 35.6265 53.9947 35.4101C53.9947 35.1989 54.0146 35.0122 54.0592 34.8598C54.1039 34.7024 54.1682 34.5601 54.2527 34.4274C54.332 34.2946 54.4312 34.1767 54.5452 34.0686C54.6593 33.9655 54.7882 33.8769 54.927 33.8033C55.2247 33.6461 55.5421 33.5723 55.8892 33.5723C56.3603 33.5723 56.7669 33.705 57.1042 33.9705L56.8811 34.3242Z" fill="#FEFEFE"/>
<path fill-rule="evenodd" clip-rule="evenodd" d="M58.1566 33.6221H60.7157V34.025H58.603V34.9391H60.4824V35.3421H58.603V36.6148H60.7651V37.0177H58.1566V33.6221Z" fill="#FEFEFE"/>
<path fill-rule="evenodd" clip-rule="evenodd" d="M63.3235 33.6221H64.5832C64.9948 33.6221 65.3073 33.6713 65.5206 33.7695C65.7983 33.8973 65.9371 34.1234 65.9371 34.4379C65.9371 34.5754 65.8875 34.7083 65.7884 34.8407C65.6991 34.9587 65.5999 35.0324 65.4808 35.0667C65.7141 35.1111 65.8975 35.2142 66.0364 35.3666C66.18 35.5288 66.2496 35.7253 66.2496 35.9612C66.2496 36.4525 65.9818 36.7722 65.4412 36.9244C65.218 36.9883 64.9602 37.0177 64.6626 37.0177H63.3235V33.6221ZM64.6279 34.9391C64.9948 34.9391 65.2429 34.8555 65.3818 34.6935C65.4361 34.6345 65.4611 34.5558 65.4611 34.4575C65.4611 34.3592 65.4313 34.2806 65.3718 34.2216C65.3122 34.1626 65.2329 34.1184 65.1387 34.0889C64.9999 34.0448 64.7915 34.025 64.5138 34.025H63.7701V34.9391H64.6279ZM65.7784 35.9857C65.7784 35.5583 65.4213 35.3421 64.7071 35.3421H63.7701V36.6148H64.7221C65.2131 36.6148 65.5354 36.5115 65.6842 36.3053C65.7487 36.2216 65.7784 36.1185 65.7784 35.9857Z" fill="#FEFEFE"/>
<path fill-rule="evenodd" clip-rule="evenodd" d="M70.4394 34.664C70.4394 35.17 70.2064 35.5189 69.7353 35.7106L70.3899 37.0177H69.869L69.2789 35.8334C69.1202 35.858 68.9517 35.8728 68.7782 35.8728H67.8854V37.0177H67.4391V33.6221H68.8475C69.3533 33.6221 69.7302 33.691 69.9832 33.8237C70.2857 33.9907 70.4394 34.2709 70.4394 34.664ZM68.8375 35.4649C69.1996 35.4649 69.4674 35.4158 69.6409 35.3175C69.8593 35.1947 69.9634 34.9882 69.9634 34.6935C69.9634 34.315 69.7154 34.0988 69.2195 34.0448C69.0756 34.03 68.9269 34.025 68.7731 34.025H67.8854V35.4649H68.8375Z" fill="#FEFEFE"/>
<path fill-rule="evenodd" clip-rule="evenodd" d="M72.059 36.5845C71.8904 36.4372 71.7565 36.2554 71.6623 36.044C71.563 35.8378 71.5135 35.6265 71.5135 35.4101C71.5135 35.1989 71.5332 35.0122 71.578 34.8598C71.6226 34.7024 71.687 34.5601 71.7713 34.4274C71.8507 34.2946 71.95 34.1767 72.0639 34.0686C72.1781 33.9655 72.3069 33.8769 72.4458 33.8033C72.7433 33.6461 73.0608 33.5723 73.4079 33.5723C73.7401 33.5723 74.0526 33.6461 74.3402 33.7934C74.6179 33.9359 74.8411 34.1375 75.0098 34.393C75.1783 34.6582 75.2627 34.9532 75.2627 35.2824C75.2627 35.7984 75.0792 36.2258 74.7121 36.565C74.4791 36.7762 74.2014 36.9237 73.874 37.0023C73.7102 37.0466 73.522 37.0662 73.3086 37.0662C73.0905 37.0662 72.8723 37.0219 72.6492 36.9385C72.4259 36.8549 72.2277 36.7369 72.059 36.5845ZM72.3913 34.3437C72.2672 34.4618 72.1681 34.5993 72.0936 34.7566C72.0242 34.9188 71.9895 35.0956 71.9895 35.2873C71.9895 35.479 72.0242 35.6608 72.0986 35.8279C72.173 35.9949 72.2771 36.1424 72.4062 36.2652C72.6789 36.5307 73.0162 36.6682 73.4079 36.6682C73.7898 36.6682 74.117 36.5403 74.3849 36.2898C74.6525 36.0391 74.7865 35.7246 74.7865 35.3561C74.7865 35.1006 74.7221 34.8647 74.5932 34.6486C74.4741 34.447 74.3005 34.2799 74.0824 34.157C73.8641 34.0294 73.6459 33.9705 73.4178 33.9705C73.1947 33.9705 72.9962 34.0048 72.8275 34.0686C72.664 34.1375 72.5152 34.2259 72.3913 34.3437Z" fill="#FEFEFE"/>
<path fill-rule="evenodd" clip-rule="evenodd" d="M76.4745 33.6221H76.9358V35.3126L78.7162 33.6221H79.2963L77.4316 35.3814L79.3756 37.0177H78.6666L76.9358 35.5189V37.0177H76.4745V33.6221Z" fill="#FEFEFE"/>
<path fill-rule="evenodd" clip-rule="evenodd" d="M80.3089 33.6221H82.8679V34.025H80.7554V34.9391H82.6348V35.3421H80.7554V36.6148H82.9175V37.0177H80.3089V33.6221Z" fill="#FEFEFE"/>
<path fill-rule="evenodd" clip-rule="evenodd" d="M87.0621 34.664C87.0621 35.17 86.8291 35.5189 86.3579 35.7106L87.0126 37.0177H86.4917L85.9015 35.8334C85.7429 35.858 85.5743 35.8728 85.4008 35.8728H84.5081V37.0177H84.0616V33.6221H85.4702C85.9759 33.6221 86.3529 33.691 86.6058 33.8237C86.9084 33.9907 87.0621 34.2709 87.0621 34.664ZM85.4602 35.4649C85.8222 35.4649 86.0901 35.4158 86.2636 35.3175C86.4819 35.1947 86.5861 34.9882 86.5861 34.6935C86.5861 34.315 86.338 34.0988 85.8422 34.0448C85.6983 34.03 85.5494 34.025 85.3957 34.025H84.5081V35.4649H85.4602Z" fill="#FEFEFE"/>
<path fill-rule="evenodd" clip-rule="evenodd" d="M88.3443 36.2505C88.6467 36.4422 88.9493 36.5699 89.2617 36.6289C89.3659 36.6534 89.4701 36.6632 89.5791 36.6632C89.6882 36.6632 89.7974 36.6534 89.9163 36.6339C90.0305 36.6092 90.1295 36.5798 90.2189 36.5307C90.4221 36.4274 90.5214 36.2652 90.5214 36.044C90.5214 35.818 90.3528 35.6608 90.0156 35.5724C89.9213 35.5477 89.8122 35.5233 89.7032 35.5035L89.3559 35.4447C88.9146 35.3659 88.6071 35.2578 88.4335 35.1104C88.27 34.9779 88.1905 34.8009 88.1905 34.5748C88.1905 34.2652 88.3393 34.0194 88.6369 33.8279C88.8997 33.6558 89.2121 33.5723 89.5743 33.5723C89.9213 33.5723 90.2289 33.6264 90.5065 33.7393C90.6056 33.7788 90.7098 33.823 90.814 33.882L90.6503 34.2751C90.4172 34.1325 90.1395 34.0441 89.8222 34.0048C89.7229 33.99 89.6239 33.9801 89.5297 33.9801C89.3163 33.9801 89.1278 34.0243 88.9593 34.1029C88.7709 34.2013 88.6716 34.3341 88.6716 34.5011C88.6716 34.6829 88.7955 34.8106 89.0386 34.8942C89.1477 34.9336 89.2717 34.9631 89.4106 34.9875L89.842 35.0613C90.204 35.1301 90.457 35.2088 90.6007 35.2922C90.7395 35.3758 90.8437 35.4691 90.9082 35.5771C90.9776 35.6804 91.0123 35.818 91.0123 35.9949C91.0123 36.167 90.9676 36.3242 90.8884 36.4617C90.804 36.5993 90.6949 36.7125 90.556 36.8009C90.2884 36.9777 89.9461 37.0662 89.5345 37.0662C89.1477 37.0662 88.7807 36.9827 88.4435 36.8157C88.3296 36.7616 88.2254 36.7026 88.1312 36.6289L88.3443 36.2505Z" fill="#FEFEFE"/>
<path fill-rule="evenodd" clip-rule="evenodd" d="M93.6318 33.6221H94.9907C95.4469 33.6221 95.8139 33.7204 96.0916 33.9269C96.3843 34.1479 96.5329 34.4674 96.5329 34.8802C96.5329 35.3126 96.3792 35.6566 96.0669 35.9121C95.7692 36.1529 95.3874 36.2757 94.9211 36.2757H94.0782V37.0177H93.6318V33.6221ZM94.9807 35.8728C95.313 35.8728 95.5708 35.7892 95.7643 35.6272C95.9627 35.455 96.0618 35.2192 96.0618 34.9096C96.0618 34.6099 95.9478 34.3886 95.7246 34.2315C95.5262 34.0939 95.2584 34.025 94.9211 34.025H94.0782V35.8728H94.9807Z" fill="#FEFEFE"/>
<path fill-rule="evenodd" clip-rule="evenodd" d="M97.2399 33.6221H97.7409L98.6335 35.5682C98.6731 35.6615 98.7129 35.75 98.7476 35.8384C98.8219 36.035 98.8815 36.1922 98.9261 36.32H98.9459C98.9708 36.2463 98.9954 36.1726 99.0203 36.0988L99.1096 35.8679C99.1443 35.7794 99.1791 35.691 99.2235 35.6025L100.126 33.6221H100.602L99.0303 37.0668H98.817L97.2399 33.6221Z" fill="#FEFEFE"/>
<path fill-rule="evenodd" clip-rule="evenodd" d="M102.611 34.025H101.322V33.6221H104.347V34.025H103.057V37.0177H102.611V34.025Z" fill="#FEFEFE"/>
<path fill-rule="evenodd" clip-rule="evenodd" d="M105.626 37.0478C105.537 37.0478 105.463 37.0231 105.408 36.9691C105.354 36.915 105.324 36.8413 105.324 36.7528C105.324 36.6595 105.354 36.5908 105.408 36.5367C105.463 36.4826 105.537 36.458 105.626 36.458C105.716 36.458 105.79 36.4826 105.845 36.5367C105.899 36.5908 105.924 36.6595 105.924 36.7528C105.924 36.8413 105.899 36.915 105.845 36.9691C105.79 37.0231 105.716 37.0478 105.626 37.0478Z" fill="#FEFEFE"/>
<path fill-rule="evenodd" clip-rule="evenodd" d="M108.514 33.6221H108.96V36.6148H110.83V37.0177H108.514V33.6221Z" fill="#FEFEFE"/>
<path fill-rule="evenodd" clip-rule="evenodd" d="M112.881 34.025H111.591V33.6221H114.617V34.025H113.327V37.0177H112.881V34.025Z" fill="#FEFEFE"/>
<path fill-rule="evenodd" clip-rule="evenodd" d="M115.658 33.6221H117.067C117.587 33.6221 118.014 33.7647 118.331 34.0546C118.664 34.3592 118.827 34.7572 118.827 35.2633C118.827 35.7942 118.659 36.2216 118.321 36.541C117.984 36.8606 117.543 37.0177 116.997 37.0177H115.658V33.6221ZM117.057 36.6148C117.459 36.6148 117.776 36.492 118.009 36.256C118.237 36.0152 118.351 35.6958 118.351 35.2929C118.351 34.8997 118.227 34.5902 117.974 34.3592C117.726 34.1332 117.399 34.025 116.992 34.025H116.105V36.6148H117.057Z" fill="#FEFEFE"/>
<path fill-rule="evenodd" clip-rule="evenodd" d="M120.206 37.0478C120.117 37.0478 120.042 37.0231 119.988 36.9691C119.933 36.915 119.904 36.8413 119.904 36.7528C119.904 36.6595 119.933 36.5908 119.988 36.5367C120.042 36.4826 120.117 36.458 120.206 36.458C120.295 36.458 120.37 36.4826 120.424 36.5367C120.479 36.5908 120.504 36.6595 120.504 36.7528C120.504 36.8413 120.479 36.915 120.424 36.9691C120.37 37.0231 120.295 37.0478 120.206 37.0478Z" fill="#FEFEFE"/>
<path fill-rule="evenodd" clip-rule="evenodd" d="M16.1736 8.4515L15.7049 30.0505H21.4733L21.1305 8.4515H16.1736ZM18.5891 6.30978C20.1871 6.30978 21.4822 5.02651 21.4822 3.44304C21.4822 1.85957 20.1871 0.576172 18.5891 0.576172C16.9915 0.576172 15.6957 1.85957 15.6957 3.44304C15.6957 5.02651 16.9915 6.30978 18.5891 6.30978Z" fill="#009936"/>
<path fill-rule="evenodd" clip-rule="evenodd" d="M93.5386 0C95.1366 0 96.4321 1.28376 96.4321 2.86698C96.4321 4.45045 95.1366 5.73409 93.5386 5.73409C91.9408 5.73409 90.6453 4.45045 90.6453 2.86698C90.6453 1.28376 91.9408 0 93.5386 0Z" fill="#FEFEFE"/>
<path fill-rule="evenodd" clip-rule="evenodd" d="M91.1232 7.96094L90.6543 29.5597H96.423L96.0802 7.96094H91.1232Z" fill="#FEFEFE"/>
</svg>
