<svg width="300" height="77" viewBox="0 0 300 77" fill="none" xmlns="http://www.w3.org/2000/svg">
<g clip-path="url(#clip0_374_24)">
<path fill-rule="evenodd" clip-rule="evenodd" d="M11.4234 23.2518H11.7642C13.0431 20.8084 14.8332 18.8708 17.1351 17.4388C19.4369 16.0066 22.1649 15.3325 25.3193 15.3325C26.4275 15.3325 27.5358 15.5012 28.4738 15.754V26.7056C28.1327 26.7056 27.4508 26.6214 26.5127 26.5372C25.4897 26.453 24.5519 26.3686 23.7848 26.3686C15.8562 26.3686 11.9349 30.4123 11.9349 38.5V60.9934H-9.15527e-05V16.4276H11.4234V23.2518Z" fill="#FEFEFE"/>
<path fill-rule="evenodd" clip-rule="evenodd" d="M78.3986 29.9068C77.9726 27.801 76.9493 26.116 75.3296 24.9366C73.7099 23.7573 71.7489 23.1673 69.5324 23.1673C67.316 23.1673 65.5259 23.5884 64.1615 24.5154C62.7979 25.4421 62.1155 26.7901 62.1155 28.4749C62.1155 29.9068 62.7979 31.0022 64.0766 31.6761C65.3555 32.3499 67.4015 32.9399 70.0439 33.3609L74.6477 34.035C79.6775 34.8773 83.5991 36.2253 86.4125 38.1629C89.2256 40.1003 90.5894 43.3021 90.5894 47.767C90.5894 52.4846 88.7141 56.0229 84.878 58.3815C81.0416 60.8249 76.0967 62.0043 69.8735 62.0043C63.9914 62.0043 59.132 60.7408 55.2956 58.2132C51.4595 55.7703 49.1578 52.3162 48.3904 48.0196L59.5583 46.4188C60.155 49.0306 61.3486 51.0524 63.1385 52.3162C64.9289 53.58 67.2308 54.2539 70.0439 54.2539C72.6017 54.2539 74.6477 53.7484 76.1822 52.653C77.7167 51.5582 78.484 50.1257 78.484 48.2725C78.484 46.7561 77.8022 45.5768 76.3526 44.8185C74.9033 44.0604 72.7719 43.386 69.959 42.965L65.0144 42.2066C60.4961 41.4486 56.9156 40.1848 54.2726 38.2474C51.5447 36.3097 50.1809 33.2769 50.1809 28.9803C50.1809 26.2001 51.0332 23.8412 52.8233 21.7351C54.5282 19.6291 56.8301 18.0285 59.8141 16.9334C62.7979 15.838 66.0374 15.3325 69.5324 15.3325C74.7329 15.3325 79.2512 16.5121 82.9169 18.9552C86.5829 21.3981 88.7141 24.5154 89.396 28.3904L78.3986 29.9068Z" fill="#FEFEFE"/>
<path fill-rule="evenodd" clip-rule="evenodd" d="M106.516 60.9932H94.5804V0H106.516V33.6978L122.799 16.4275H136.524L119.644 33.5294L138.485 60.9932H124.588L111.545 41.364L106.516 46.5031V60.9932Z" fill="#FEFEFE"/>
<path fill-rule="evenodd" clip-rule="evenodd" d="M170.798 60.9934C170.372 60.5723 170.116 59.7296 169.86 58.6344C169.605 57.5393 169.52 56.2757 169.52 54.7593C168.241 57.0338 166.28 58.8031 163.552 60.0669C160.739 61.4144 157.755 62.0043 154.6 62.0043C151.958 62.0043 149.486 61.4988 147.184 60.4034C144.882 59.3085 143.006 57.7921 141.642 55.7703C140.193 53.8326 139.511 51.4737 139.511 48.778C139.511 44.2285 141.046 40.8587 144.2 38.6684C147.354 36.4781 152.043 35.0459 158.266 34.2878C162.614 33.6979 165.513 33.108 167.132 32.35C168.667 31.6761 169.434 30.6651 169.434 29.2329C169.434 27.5481 168.752 26.2001 167.474 25.1892C166.195 24.2627 164.234 23.7573 161.591 23.7573C159.46 23.7573 157.499 24.3467 155.879 25.4421C154.174 26.5372 152.981 28.222 152.298 30.4123L141.301 28.7275C142.239 24.5993 144.626 21.3139 148.292 18.8708C151.958 16.5121 156.476 15.3325 161.847 15.3325C168.411 15.3325 173.271 16.5961 176.51 19.2078C179.749 21.8194 181.369 25.2737 181.369 29.7384V52.0636C181.369 54.6749 181.454 56.5284 181.625 57.7921C181.71 59.0559 182.051 60.1508 182.563 60.9934H170.798ZM169.434 39.0055C168.752 39.5949 167.644 40.0164 166.024 40.3532C164.404 40.7747 162.273 41.1115 159.63 41.4486C157.243 41.8696 155.368 42.5437 153.918 43.6388C152.469 44.734 151.702 46.3349 151.702 48.2725C151.702 50.0415 152.298 51.4737 153.492 52.4002C154.6 53.4111 156.22 53.9166 158.266 53.9166C160.057 53.9166 161.762 53.58 163.466 52.8217C165.172 52.0636 166.621 50.9682 167.729 49.3674C168.837 47.851 169.434 45.9133 169.434 43.6388V39.0055Z" fill="#FEFEFE"/>
<path fill-rule="evenodd" clip-rule="evenodd" d="M224.087 15.3324C227.241 15.3324 229.969 15.8378 232.271 16.9332C234.573 18.0284 236.363 19.629 237.642 21.5664H237.983V0H249.918V60.9932H238.494V55.1802H238.153C236.875 57.455 234.999 59.224 232.612 60.3194C230.14 61.4142 227.412 62.0042 224.343 62.0042C220.506 62.0042 217.096 61.0777 214.113 59.1398C211.129 57.2021 208.742 54.5064 207.037 50.9681C205.332 47.514 204.479 43.3859 204.479 38.7527C204.479 34.1191 205.332 29.9911 207.037 26.3684C208.656 22.8302 211.044 20.1344 214.027 18.1968C217.011 16.2594 220.336 15.3324 224.087 15.3324ZM227.667 52.99C231.077 52.99 233.806 51.7262 235.766 49.2833C237.727 46.8402 238.665 43.3859 238.665 38.7527C238.665 34.1191 237.727 30.5805 235.766 28.0535C233.806 25.6103 231.077 24.3466 227.667 24.3466C224.258 24.3466 221.529 25.6103 219.569 28.0535C217.608 30.4966 216.585 34.1191 216.585 38.7527C216.585 43.3859 217.608 46.8402 219.569 49.2833C221.529 51.7262 224.258 52.99 227.667 52.99Z" fill="#FEFEFE"/>
<path fill-rule="evenodd" clip-rule="evenodd" d="M299.574 47.767C298.465 51.6421 296.164 55.012 292.583 57.7921C289.003 60.5723 283.973 62.0043 277.494 62.0043C272.89 62.0043 268.883 61.0778 265.473 59.1399C262.063 57.2867 259.421 54.5909 257.63 51.0524C255.84 47.5981 254.902 43.4704 254.902 38.7528C254.902 33.9508 255.84 29.8226 257.63 26.2846C259.421 22.8303 261.978 20.1346 265.388 18.1969C268.713 16.2595 272.72 15.3325 277.408 15.3325C281.927 15.3325 285.848 16.2595 289.258 18.0285C292.669 19.7975 295.311 22.4935 297.187 25.9476C299.062 29.4858 300 33.6979 300 38.5839C300 39.6793 300 40.6058 299.915 41.1957H267.008C267.093 44.9868 268.116 47.9354 269.992 50.2099C271.867 52.4846 274.339 53.664 277.494 53.664C280.478 53.664 282.694 52.9901 284.229 51.5582C285.763 50.2099 286.786 48.6093 287.383 46.7561L299.574 47.767ZM277.408 23.5884C274.425 23.5884 272.038 24.5153 270.247 26.453C268.457 28.3904 267.434 30.7496 267.178 33.6137H287.724C287.468 30.6651 286.53 28.3065 284.74 26.3686C282.95 24.5153 280.478 23.5884 277.408 23.5884Z" fill="#FEFEFE"/>
<path fill-rule="evenodd" clip-rule="evenodd" d="M56.5628 69.3735H57.4865V76.38H56.5628V69.3735Z" fill="#FEFEFE"/>
<path fill-rule="evenodd" clip-rule="evenodd" d="M60.2335 69.3735H61.0443L65.61 74.91V69.3735H66.4415V76.38H65.6616L61.0649 70.8032V76.38H60.2335V69.3735Z" fill="#FEFEFE"/>
<path fill-rule="evenodd" clip-rule="evenodd" d="M69.3798 74.7981C70.0056 75.1936 70.6315 75.4571 71.2779 75.5788C71.4935 75.6295 71.709 75.6497 71.9348 75.6497C72.1603 75.6497 72.3861 75.6295 72.6323 75.5892C72.8685 75.5382 73.0736 75.4775 73.2583 75.3762C73.6787 75.1631 73.8841 74.8283 73.8841 74.372C73.8841 73.9056 73.5354 73.5814 72.8376 73.3989C72.6425 73.348 72.4167 73.2976 72.1912 73.2567L71.4728 73.1355C70.5597 72.9728 69.9237 72.7498 69.5643 72.4457C69.226 72.1722 69.0615 71.8071 69.0615 71.3405C69.0615 70.7017 69.3694 70.1947 69.9852 69.7994C70.5289 69.4444 71.1756 69.272 71.9246 69.272C72.6425 69.272 73.279 69.3837 73.8535 69.6166C74.0583 69.698 74.2739 69.7893 74.4895 69.9111L74.1507 70.7221C73.6686 70.4279 73.0943 70.2456 72.4374 70.1644C72.232 70.1339 72.0271 70.1135 71.8322 70.1135C71.3909 70.1135 71.0009 70.2048 70.6521 70.3669C70.2623 70.5698 70.0569 70.8439 70.0569 71.1885C70.0569 71.5636 70.3133 71.8271 70.8162 71.9995C71.0419 72.0809 71.2986 72.1417 71.5858 72.1921L72.4784 72.3444C73.2274 72.4863 73.7509 72.6486 74.0481 72.8208C74.3354 72.9933 74.551 73.1859 74.6844 73.4087C74.828 73.6218 74.9 73.9056 74.9 74.2707C74.9 74.6259 74.8073 74.9501 74.6433 75.2339C74.4688 75.5178 74.243 75.7513 73.9558 75.9338C73.4019 76.2986 72.694 76.4811 71.8424 76.4811C71.0419 76.4811 70.2827 76.3089 69.585 75.9643C69.3492 75.8526 69.1337 75.7309 68.9388 75.5788L69.3798 74.7981Z" fill="#FEFEFE"/>
<path fill-rule="evenodd" clip-rule="evenodd" d="M77.2393 69.3735H78.163V72.9935C78.163 74.2709 78.5942 75.0925 79.4557 75.4676C79.743 75.5894 80.0919 75.6602 80.4922 75.6602C80.8925 75.6602 81.2413 75.5992 81.5183 75.4875C81.8056 75.366 82.0313 75.2039 82.216 74.9808C82.575 74.5651 82.7494 73.9467 82.7494 73.1455V69.3735H83.6829V72.9935C83.6829 74.6765 83.0676 75.7615 81.8464 76.2378C81.4362 76.4004 80.9641 76.4813 80.4305 76.4813C79.897 76.4813 79.4251 76.4004 79.0353 76.2484C78.635 76.0961 78.3064 75.8732 78.0398 75.5894C77.5063 75.0012 77.2393 74.1897 77.2393 73.1455V69.3735Z" fill="#FEFEFE"/>
<path fill-rule="evenodd" clip-rule="evenodd" d="M92.4769 71.5235C92.4769 72.5674 91.9947 73.2874 91.0202 73.683L92.3744 76.38H91.2967L90.0758 73.9364C89.7478 73.987 89.3988 74.0175 89.0398 74.0175H87.1928V76.38H86.2692V69.3735H89.1832C90.2296 69.3735 91.0095 69.5157 91.533 69.7895C92.1591 70.1341 92.4769 70.7122 92.4769 71.5235ZM89.1628 73.176C89.9118 73.176 90.4658 73.0747 90.8248 72.8717C91.2766 72.6184 91.4921 72.1923 91.4921 71.5842C91.4921 70.8032 90.9789 70.3572 89.9531 70.2458C89.6553 70.2153 89.3474 70.205 89.0293 70.205H87.1928V73.176H89.1628Z" fill="#FEFEFE"/>
<path fill-rule="evenodd" clip-rule="evenodd" d="M97.459 69.3735H97.9823L101.05 76.38H100.035L99.3673 74.849H95.8171L95.0888 76.38H94.1347L97.459 69.3735ZM99.0083 74.0175L98.3619 72.5372C98.2902 72.3544 98.2083 72.162 98.1259 71.9694L97.9313 71.4118C97.808 71.0465 97.7259 70.7931 97.7055 70.6615H97.644C97.6131 70.7931 97.5616 70.9857 97.4693 71.229C97.4693 71.229 97.3769 71.442 97.2128 71.8782C97.1307 72.0607 97.0488 72.2432 96.9565 72.4358L96.2072 74.0175H99.0083Z" fill="#FEFEFE"/>
<path fill-rule="evenodd" clip-rule="evenodd" d="M102.998 69.3735H103.809L108.375 74.91V69.3735H109.206V76.38H108.426L103.83 70.8032V76.38H102.998V69.3735Z" fill="#FEFEFE"/>
<path fill-rule="evenodd" clip-rule="evenodd" d="M117.685 70.8234C117.131 70.3366 116.412 70.0936 115.551 70.0936C114.75 70.0936 114.083 70.347 113.529 70.8638C112.975 71.3811 112.698 72.03 112.698 72.8007C112.698 73.6018 112.985 74.2707 113.56 74.8283C114.124 75.3762 114.822 75.66 115.633 75.66C116.228 75.66 116.813 75.5078 117.408 75.2136C117.582 75.1228 117.726 75.0315 117.859 74.9297L118.218 75.6091C117.726 76.0251 117.09 76.2986 116.32 76.4204C116.064 76.461 115.807 76.4811 115.551 76.4811C115.017 76.4811 114.525 76.3899 114.063 76.2177C113.601 76.0452 113.191 75.8017 112.842 75.4873C112.493 75.1833 112.216 74.8082 112.021 74.372C111.816 73.9465 111.713 73.5106 111.713 73.0641C111.713 72.6282 111.754 72.243 111.847 71.9286C111.939 71.6039 112.072 71.3102 112.247 71.0365C112.411 70.7624 112.616 70.5191 112.852 70.296C113.088 70.0832 113.355 69.9005 113.642 69.7487C114.258 69.4242 114.915 69.272 115.633 69.272C116.608 69.272 117.449 69.5458 118.147 70.0936L117.685 70.8234Z" fill="#FEFEFE"/>
<path fill-rule="evenodd" clip-rule="evenodd" d="M120.324 69.3735H125.619V70.205H121.247V72.0909H125.136V72.9226H121.247V75.5485H125.721V76.38H120.324V69.3735Z" fill="#FEFEFE"/>
<path fill-rule="evenodd" clip-rule="evenodd" d="M131.014 69.3735H133.62C134.472 69.3735 135.118 69.4751 135.56 69.6778C136.134 69.9415 136.422 70.4079 136.422 71.0568C136.422 71.3407 136.319 71.6147 136.114 71.888C135.929 72.1316 135.724 72.2836 135.477 72.3544C135.96 72.4459 136.34 72.6587 136.627 72.973C136.924 73.3078 137.068 73.7132 137.068 74.2001C137.068 75.2138 136.514 75.8733 135.396 76.1874C134.934 76.3192 134.4 76.38 133.785 76.38H131.014V69.3735ZM133.713 72.0909C134.472 72.0909 134.985 71.9185 135.273 71.5842C135.385 71.4624 135.437 71.3001 135.437 71.0974C135.437 70.8945 135.375 70.7323 135.252 70.6106C135.129 70.4888 134.965 70.3976 134.77 70.3368C134.482 70.2458 134.051 70.205 133.477 70.205H131.938V72.0909H133.713ZM136.093 74.2504C136.093 73.3686 135.354 72.9226 133.877 72.9226H131.938V75.5485H133.908C134.924 75.5485 135.59 75.3355 135.898 74.91C136.032 74.7373 136.093 74.5245 136.093 74.2504Z" fill="#FEFEFE"/>
<path fill-rule="evenodd" clip-rule="evenodd" d="M145.737 71.5235C145.737 72.5674 145.255 73.2874 144.28 73.683L145.634 76.38H144.557L143.336 73.9364C143.007 73.987 142.659 74.0175 142.3 74.0175H140.453V76.38H139.529V69.3735H142.443C143.489 69.3735 144.269 69.5157 144.793 69.7895C145.419 70.1341 145.737 70.7122 145.737 71.5235ZM142.422 73.176C143.172 73.176 143.726 73.0747 144.085 72.8717C144.536 72.6184 144.752 72.1923 144.752 71.5842C144.752 70.8032 144.239 70.3572 143.213 70.2458C142.915 70.2153 142.607 70.205 142.289 70.205H140.453V73.176H142.422Z" fill="#FEFEFE"/>
<path fill-rule="evenodd" clip-rule="evenodd" d="M149.087 75.4873C148.739 75.1833 148.462 74.8082 148.267 74.372C148.061 73.9465 147.959 73.5106 147.959 73.0641C147.959 72.6282 148 72.243 148.092 71.9286C148.185 71.6039 148.318 71.3102 148.492 71.0365C148.657 70.7624 148.862 70.5191 149.098 70.296C149.334 70.0832 149.6 69.9005 149.888 69.7487C150.503 69.4242 151.16 69.272 151.878 69.272C152.566 69.272 153.212 69.4242 153.807 69.7283C154.382 70.0222 154.844 70.4382 155.193 70.9654C155.541 71.5127 155.716 72.1212 155.716 72.8007C155.716 73.8653 155.336 74.7471 154.577 75.447C154.095 75.8829 153.52 76.1872 152.843 76.3493C152.504 76.4408 152.114 76.4811 151.673 76.4811C151.222 76.4811 150.77 76.3899 150.309 76.2177C149.847 76.0452 149.436 75.8017 149.087 75.4873ZM149.775 70.8638C149.518 71.1073 149.313 71.3911 149.159 71.7156C149.016 72.0504 148.944 72.4152 148.944 72.8107C148.944 73.2063 149.016 73.5814 149.169 73.926C149.323 74.2707 149.539 74.575 149.806 74.8283C150.37 75.3762 151.068 75.66 151.878 75.66C152.668 75.66 153.346 75.3961 153.9 74.8793C154.453 74.362 154.731 73.713 154.731 72.9527C154.731 72.4255 154.597 71.9387 154.331 71.4928C154.084 71.0768 153.725 70.7322 153.274 70.4786C152.822 70.2151 152.371 70.0936 151.899 70.0936C151.437 70.0936 151.027 70.1644 150.678 70.296C150.339 70.4382 150.031 70.6207 149.775 70.8638Z" fill="#FEFEFE"/>
<path fill-rule="evenodd" clip-rule="evenodd" d="M158.223 69.3735H159.177V72.8616L162.861 69.3735H164.061L160.203 73.0036L164.225 76.38H162.758L159.177 73.2874V76.38H158.223V69.3735Z" fill="#FEFEFE"/>
<path fill-rule="evenodd" clip-rule="evenodd" d="M166.156 69.3735H171.451V70.205H167.08V72.0909H170.968V72.9226H167.08V75.5485H171.553V76.38H166.156V69.3735Z" fill="#FEFEFE"/>
<path fill-rule="evenodd" clip-rule="evenodd" d="M180.129 71.5235C180.129 72.5674 179.646 73.2874 178.672 73.683L180.026 76.38H178.948L177.727 73.9364C177.399 73.987 177.05 74.0175 176.691 74.0175H174.844V76.38H173.921V69.3735H176.835C177.881 69.3735 178.661 69.5157 179.184 69.7895C179.81 70.1341 180.129 70.7122 180.129 71.5235ZM176.814 73.176C177.563 73.176 178.117 73.0747 178.476 72.8717C178.928 72.6184 179.144 72.1923 179.144 71.5842C179.144 70.8032 178.63 70.3572 177.604 70.2458C177.307 70.2153 176.999 70.205 176.681 70.205H174.844V73.176H176.814Z" fill="#FEFEFE"/>
<path fill-rule="evenodd" clip-rule="evenodd" d="M182.781 74.7981C183.407 75.1936 184.033 75.4571 184.679 75.5788C184.895 75.6295 185.111 75.6497 185.336 75.6497C185.562 75.6497 185.788 75.6295 186.034 75.5892C186.27 75.5382 186.475 75.4775 186.66 75.3762C187.08 75.1631 187.286 74.8283 187.286 74.372C187.286 73.9056 186.937 73.5814 186.239 73.3989C186.044 73.348 185.818 73.2976 185.593 73.2567L184.874 73.1355C183.961 72.9728 183.325 72.7498 182.966 72.4457C182.628 72.1722 182.463 71.8071 182.463 71.3405C182.463 70.7017 182.771 70.1947 183.387 69.7994C183.93 69.4444 184.577 69.272 185.326 69.272C186.044 69.272 186.681 69.3837 187.255 69.6166C187.46 69.698 187.675 69.7893 187.891 69.9111L187.552 70.7221C187.07 70.4279 186.496 70.2456 185.839 70.1644C185.634 70.1339 185.429 70.1135 185.234 70.1135C184.792 70.1135 184.402 70.2048 184.054 70.3669C183.664 70.5698 183.458 70.8439 183.458 71.1885C183.458 71.5636 183.715 71.8271 184.218 71.9995C184.443 72.0809 184.7 72.1417 184.987 72.1921L185.88 72.3444C186.629 72.4863 187.152 72.6486 187.45 72.8208C187.737 72.9933 187.953 73.1859 188.086 73.4087C188.23 73.6218 188.301 73.9056 188.301 74.2707C188.301 74.6259 188.209 74.9501 188.045 75.2339C187.87 75.5178 187.645 75.7513 187.357 75.9338C186.803 76.2986 186.095 76.4811 185.244 76.4811C184.443 76.4811 183.684 76.3089 182.987 75.9643C182.751 75.8526 182.535 75.7309 182.34 75.5788L182.781 74.7981Z" fill="#FEFEFE"/>
<path fill-rule="evenodd" clip-rule="evenodd" d="M193.721 69.3735H196.532C197.476 69.3735 198.236 69.5765 198.81 70.0025C199.416 70.4586 199.723 71.1178 199.723 71.9694C199.723 72.8616 199.405 73.5715 198.759 74.0987C198.143 74.5956 197.353 74.849 196.389 74.849H194.645V76.38H193.721V69.3735ZM196.512 74.0175C197.199 74.0175 197.733 73.8451 198.133 73.5108C198.544 73.1556 198.749 72.669 198.749 72.0302C198.749 71.4118 198.513 70.9552 198.051 70.631C197.64 70.3471 197.086 70.205 196.389 70.205H194.645V74.0175H196.512Z" fill="#FEFEFE"/>
<path fill-rule="evenodd" clip-rule="evenodd" d="M201.186 69.3735H202.223L204.069 73.389C204.151 73.5816 204.234 73.7641 204.305 73.9467C204.459 74.3523 204.582 74.6765 204.675 74.9402H204.715C204.767 74.7882 204.818 74.6362 204.87 74.4839L205.054 74.0074C205.126 73.8249 205.198 73.6424 205.29 73.4599L207.158 69.3735H208.143L204.89 76.4813H204.449L201.186 69.3735Z" fill="#FEFEFE"/>
<path fill-rule="evenodd" clip-rule="evenodd" d="M212.299 70.205H209.631V69.3735H215.89V70.205H213.222V76.38H212.299V70.205Z" fill="#FEFEFE"/>
<path fill-rule="evenodd" clip-rule="evenodd" d="M218.537 76.4411C218.353 76.4411 218.199 76.3901 218.086 76.2787C217.973 76.167 217.912 76.015 217.912 75.8325C217.912 75.6398 217.973 75.4982 218.086 75.3865C218.199 75.2748 218.353 75.2241 218.537 75.2241C218.722 75.2241 218.876 75.2748 218.989 75.3865C219.102 75.4982 219.153 75.6398 219.153 75.8325C219.153 76.015 219.102 76.167 218.989 76.2787C218.876 76.3901 218.722 76.4411 218.537 76.4411Z" fill="#FEFEFE"/>
<path fill-rule="evenodd" clip-rule="evenodd" d="M224.512 69.3735H225.435V75.5485H229.303V76.38H224.512V69.3735Z" fill="#FEFEFE"/>
<path fill-rule="evenodd" clip-rule="evenodd" d="M233.547 70.205H230.879V69.3735H237.138V70.205H234.47V76.38H233.547V70.205Z" fill="#FEFEFE"/>
<path fill-rule="evenodd" clip-rule="evenodd" d="M239.293 69.3735H242.207C243.284 69.3735 244.166 69.6677 244.823 70.266C245.511 70.8945 245.849 71.7158 245.849 72.76C245.849 73.8554 245.501 74.7373 244.803 75.3962C244.105 76.0558 243.192 76.38 242.064 76.38H239.293V69.3735ZM242.186 75.5485C243.018 75.5485 243.674 75.2952 244.157 74.8083C244.629 74.3115 244.864 73.6525 244.864 72.821C244.864 72.0098 244.608 71.3712 244.085 70.8945C243.571 70.4281 242.895 70.205 242.053 70.205H240.217V75.5485H242.186Z" fill="#FEFEFE"/>
<path fill-rule="evenodd" clip-rule="evenodd" d="M248.702 76.4411C248.518 76.4411 248.364 76.3901 248.251 76.2787C248.138 76.167 248.076 76.015 248.076 75.8325C248.076 75.6398 248.138 75.4982 248.251 75.3865C248.364 75.2748 248.518 75.2241 248.702 75.2241C248.887 75.2241 249.041 75.2748 249.154 75.3865C249.267 75.4982 249.318 75.6398 249.318 75.8325C249.318 76.015 249.267 76.167 249.154 76.2787C249.041 76.3901 248.887 76.4411 248.702 76.4411Z" fill="#FEFEFE"/>
<path fill-rule="evenodd" clip-rule="evenodd" d="M33.4625 17.4385L32.4928 62.0047H44.4275L43.7183 17.4385H33.4625ZM38.4602 13.0194C41.7664 13.0194 44.4459 10.3716 44.4459 7.10432C44.4459 3.83706 41.7664 1.18896 38.4602 1.18896C35.1547 1.18896 32.4737 3.83706 32.4737 7.10432C32.4737 10.3716 35.1547 13.0194 38.4602 13.0194Z" fill="#009936"/>
<path fill-rule="evenodd" clip-rule="evenodd" d="M193.528 0C196.834 0 199.515 2.64883 199.515 5.91558C199.515 9.18283 196.834 11.8314 193.528 11.8314C190.222 11.8314 187.542 9.18283 187.542 5.91558C187.542 2.64883 190.222 0 193.528 0Z" fill="#FEFEFE"/>
<path fill-rule="evenodd" clip-rule="evenodd" d="M188.531 16.4272L187.561 60.993H199.496L198.787 16.4272H188.531Z" fill="#FEFEFE"/>
</g>
<defs>
<clipPath id="clip0_374_24">
<rect width="300" height="76.4811" fill="white"/>
</clipPath>
</defs>
</svg>
