<svg width="90" height="90" viewBox="0 0 90 90" fill="none" xmlns="http://www.w3.org/2000/svg">
<g clip-path="url(#clip0_389_699)">
<path d="M33.5762 71.3706C34.5464 71.3706 35.334 70.5837 35.334 69.6128C35.334 68.6419 34.5464 67.855 33.5762 67.855H12.4824C11.5115 67.855 10.7246 68.6419 10.7246 69.6128C10.7246 70.5837 11.5115 71.3706 12.4824 71.3706H33.5762Z" fill="#E7F1FD"/>
<path d="M88.7661 46.3046L69.1205 40.1715C68.9406 40.1104 68.7504 40.0774 68.5561 40.0774C68.5554 40.0774 68.554 40.0774 68.5533 40.0774C68.3597 40.0774 68.1688 40.1104 67.9896 40.1708L65.3762 40.9872V17.2266C65.3762 16.7411 65.1791 16.3017 64.8612 15.9837L49.3925 0.514984C49.0746 0.196381 48.6351 0 48.1496 0H5.27344C2.36549 0 0 2.36549 0 5.27344V33.5742C0 34.5451 0.786896 35.332 1.75781 35.332C2.72873 35.332 3.51562 34.5451 3.51562 33.5742V5.27344C3.51562 4.30389 4.30389 3.51562 5.27344 3.51562H46.3918V13.9526C46.3918 16.7274 48.6488 18.9844 51.4229 18.9844H61.8606V42.0845L48.3433 46.3046C47.6093 46.534 47.1094 47.2137 47.1094 47.9828V48.1606H12.4825C11.5116 48.1606 10.7247 48.9475 10.7247 49.9184C10.7247 50.8894 11.5116 51.6763 12.4825 51.6763H47.1094V58.0078H12.4825C11.5116 58.0078 10.7247 58.7947 10.7247 59.7656C10.7247 60.7365 11.5116 61.5234 12.4825 61.5234H47.1094V64.4238C47.1094 69.9706 48.8713 75.176 51.9042 79.4531H5.27344C4.30389 79.4531 3.51562 78.6649 3.51562 77.6953V49.3945C3.51562 48.4236 2.72873 47.6367 1.75781 47.6367C0.786896 47.6367 0 48.4236 0 49.3945V77.6953C0 80.6033 2.36549 82.9688 5.27344 82.9688H54.8952C58.4555 86.4713 63.0382 88.9748 68.2237 89.9684C68.3329 89.9897 68.4441 90 68.5547 90C68.6652 90 68.7765 89.9897 68.8857 89.9684C81.1203 87.6242 90 76.881 90 64.4238V47.9828C90 47.2137 89.5001 46.534 88.7661 46.3046ZM51.4229 15.4688C50.5872 15.4688 49.9075 14.789 49.9075 13.9526V6.00128L59.3742 15.4688H51.4229ZM86.4844 64.4238C86.4844 75.0847 78.9649 84.294 68.5547 86.45C58.1445 84.294 50.625 75.0847 50.625 64.4238V49.2757L68.5547 43.6775L86.4844 49.2757V64.4238Z" fill="#E7F1FD"/>
<path d="M68.0308 47.5242L55.3745 51.4758C54.6405 51.7051 54.1406 52.3842 54.1406 53.1533V64.4232C54.1406 72.9431 59.8769 80.4687 68.0891 82.7237C68.2416 82.7656 68.3981 82.7862 68.5547 82.7862C68.7112 82.7862 68.8678 82.7656 69.0202 82.7237C77.2325 80.4687 82.9688 72.9431 82.9688 64.4239V53.154C82.9688 52.3849 82.4689 51.7051 81.7348 51.4758L69.0786 47.5242C68.7373 47.4177 68.372 47.4177 68.0308 47.5242ZM79.4531 54.4462V64.4232C79.4531 71.2024 74.9954 77.2092 68.5547 79.1977C62.114 77.2092 57.6562 71.2024 57.6562 64.4232V54.4462L68.5547 51.0439L79.4531 54.4462Z" fill="#E7F1FD"/>
<path d="M64.1725 62.9907C63.4859 62.3041 62.3735 62.3041 61.6869 62.9907C61.0002 63.6774 61.0002 64.7904 61.6869 65.4764L65.7367 69.5269C66.08 69.8702 66.5298 70.0419 66.9795 70.0419C67.4293 70.0419 67.879 69.8702 68.2224 69.5269L75.4225 62.3267C76.1092 61.6401 76.1092 60.527 75.4225 59.8404C74.7359 59.1544 73.6235 59.1544 72.9362 59.8404L66.9795 65.7977L64.1725 62.9907Z" fill="#E7F1FD"/>
<path d="M37.7949 17.2246H29.3574C28.3865 17.2246 27.5996 18.0122 27.5996 18.9824V24.2559H22.3262C21.3553 24.2559 20.5684 25.0434 20.5684 26.0137V34.4512C20.5684 35.4221 21.3553 36.209 22.3262 36.209H27.5996V41.4824C27.5996 42.4533 28.3865 43.2402 29.3574 43.2402H37.7949C38.7652 43.2402 39.5527 42.4533 39.5527 41.4824V36.209H44.8262C45.7964 36.209 46.584 35.4221 46.584 34.4512V26.0137C46.584 25.0434 45.7964 24.2559 44.8262 24.2559H39.5527V18.9824C39.5527 18.0122 38.7652 17.2246 37.7949 17.2246ZM43.0684 27.7715V32.6934H37.7949C36.824 32.6934 36.0371 33.4809 36.0371 34.4512V39.7246H31.1152V34.4512C31.1152 33.4809 30.3277 32.6934 29.3574 32.6934H24.084V27.7715H29.3574C30.3277 27.7715 31.1152 26.9846 31.1152 26.0137V20.7402H36.0371V26.0137C36.0371 26.9846 36.824 27.7715 37.7949 27.7715H43.0684Z" fill="#E7F1FD"/>
<path d="M1.75781 43.2422C2.21992 43.2422 2.6738 43.054 3.00064 42.7272C3.32748 42.4004 3.51562 41.9465 3.51562 41.4844C3.51562 41.0223 3.32748 40.5684 3.00064 40.2415C2.6738 39.9147 2.21992 39.7266 1.75781 39.7266C1.2957 39.7266 0.841827 39.9147 0.514984 40.2415C0.188141 40.5684 0 41.0223 0 41.4844C0 41.9465 0.188141 42.4004 0.514984 42.7272C0.841827 43.054 1.2957 43.2422 1.75781 43.2422Z" fill="#E7F1FD"/>
</g>
<defs>
<clipPath id="clip0_389_699">
<rect width="90" height="90" fill="white"/>
</clipPath>
</defs>
</svg>
