<svg width="80" height="80" viewBox="0 0 80 80" fill="none" xmlns="http://www.w3.org/2000/svg">
<g clip-path="url(#clip0_284_202)">
<path d="M60.5334 8.86696L40.5334 0.11229C40.3651 0.038872 40.1836 0.000976562 40 0.000976562C39.8165 0.000976563 39.6349 0.038872 39.4667 0.11229L19.4667 8.86696C19.229 8.97069 19.0268 9.14147 18.8847 9.35839C18.7426 9.57532 18.6668 9.82897 18.6667 10.0883V31.0216C18.6734 35.7256 20.9334 40.1416 24.7467 42.899L38.5694 52.8683C38.9856 53.1696 39.4862 53.3317 40 53.3317C40.5138 53.3317 41.0145 53.1696 41.4307 52.8683L55.2534 42.9003C57.1327 41.5413 58.6634 39.7565 59.7202 37.692C60.777 35.6276 61.3298 33.3422 61.3334 31.023V10.0883C61.3332 9.82897 61.2575 9.57532 61.1154 9.35839C60.9733 9.14147 60.771 8.97069 60.5334 8.86696ZM58.6667 31.023C58.6637 32.9199 58.2114 34.7892 57.347 36.4777C56.4826 38.1663 55.2305 39.6261 53.6934 40.7376L40 50.6136L26.3067 40.7376C24.7695 39.6261 23.5175 38.1663 22.653 36.4777C21.7886 34.7892 21.3364 32.9199 21.3334 31.023V10.9603L40 2.78962L58.6667 10.9603V31.023Z" fill="#173457"/>
<path d="M39.4667 5.93358L24.8 12.3549C24.5623 12.4586 24.3601 12.6294 24.218 12.8463C24.0759 13.0633 24.0001 13.3169 24 13.5762V31.0229C24.002 32.4977 24.3535 33.951 25.0256 35.2637C25.6977 36.5764 26.6714 37.7111 27.8667 38.5749L39.22 46.7642C39.4471 46.9281 39.72 47.0162 40 47.0162C40.28 47.0162 40.5529 46.9281 40.78 46.7642L52.1333 38.5749C53.3287 37.7111 54.3023 36.5764 54.9744 35.2637C55.6465 33.951 55.998 32.4977 56 31.0229V13.5762C55.9999 13.3169 55.9241 13.0633 55.782 12.8463C55.6399 12.6294 55.4377 12.4586 55.2 12.3549L40.5333 5.93358C40.3651 5.86016 40.1836 5.82227 40 5.82227C39.8165 5.82227 39.6349 5.86016 39.4667 5.93358ZM53.3333 14.4469V31.0229C53.3313 32.0753 53.0802 33.1123 52.6005 34.049C52.1208 34.9857 51.4261 35.7955 50.5733 36.4122L40 44.0389L29.4267 36.4122C28.5739 35.7955 27.8792 34.9857 27.3995 34.049C26.9198 33.1123 26.6687 32.0753 26.6667 31.0229V14.4469L40 8.61091L53.3333 14.4469ZM11.0467 44.2669L8.16268 37.5282C7.93724 37.0176 7.61343 36.5563 7.20973 36.1708C6.80603 35.7853 6.33035 35.483 5.80985 35.2813C5.28934 35.0797 4.73421 34.9825 4.17615 34.9953C3.61808 35.0082 3.06801 35.1308 2.55734 35.3562C2.04668 35.5817 1.58541 35.9055 1.19989 36.3092C0.814366 36.7129 0.512131 37.1886 0.310442 37.7091C0.108753 38.2296 0.0115599 38.7847 0.0244117 39.3428C0.0372635 39.9008 0.159909 40.4509 0.385345 40.9616L5.61068 52.4562C6.31563 54.0123 7.29631 55.428 8.50535 56.6349L16.7227 64.8536C16.26 65.3442 16.0027 65.9922 16 66.6669V77.3336C16 78.0408 16.281 78.7191 16.7811 79.2192C17.2812 79.7193 17.9594 80.0002 18.6667 80.0002H33.3333C34.0406 80.0002 34.7189 79.7193 35.219 79.2192C35.7191 78.7191 36 78.0408 36 77.3336V66.6669C36 65.9597 35.7191 65.2814 35.219 64.7813C34.7189 64.2812 34.0406 64.0002 33.3333 64.0002V61.5189C33.3742 58.3611 32.344 55.2827 30.4107 52.7856C29.2772 51.2948 27.7325 50.1681 25.9667 49.5442C23.1585 48.3644 20.5758 46.707 18.3333 44.6456C17.3194 43.8105 16.0642 43.323 14.7524 43.2549C13.4407 43.1867 12.1417 43.5414 11.0467 44.2669ZM33.3333 77.3336H18.6667V66.6669H33.3333V77.3336ZM28.3293 54.4509C29.8835 56.4758 30.7072 58.9667 30.6667 61.5189V64.0002H19.6413L10.3907 54.7496C9.40819 53.7685 8.61095 52.618 8.03734 51.3536L2.81201 39.8589C2.71921 39.6673 2.66595 39.459 2.65541 39.2464C2.64487 39.0337 2.67726 38.8212 2.75065 38.6213C2.82404 38.4215 2.93693 38.2385 3.08258 38.0832C3.22823 37.928 3.40366 37.8036 3.5984 37.7176C3.79315 37.6316 4.00322 37.5857 4.21608 37.5827C4.42895 37.5796 4.64025 37.6195 4.83738 37.6999C5.03451 37.7803 5.21343 37.8995 5.36347 38.0505C5.51351 38.2016 5.63159 38.3813 5.71068 38.5789L8.69335 45.5349C9.48537 47.3908 10.627 49.077 12.056 50.5016L18.1467 56.5936C18.2697 56.7209 18.4168 56.8225 18.5795 56.8924C18.7421 56.9623 18.9171 56.999 19.0941 57.0006C19.2712 57.0021 19.4468 56.9684 19.6106 56.9013C19.7745 56.8343 19.9233 56.7353 20.0485 56.6101C20.1737 56.4849 20.2727 56.336 20.3398 56.1722C20.4068 56.0083 20.4406 55.8328 20.439 55.6557C20.4375 55.4787 20.4007 55.3037 20.3308 55.141C20.2609 54.9784 20.1594 54.8312 20.032 54.7082L13.9413 48.6162C13.3289 48.0053 12.7782 47.3354 12.2973 46.6162C12.9191 46.1378 13.6848 45.8844 14.4693 45.8975C15.2537 45.9105 16.0105 46.1893 16.616 46.6882C19.1085 48.9757 21.9892 50.7998 25.1227 52.0749C26.3994 52.5392 27.5135 53.3647 28.3293 54.4509Z" fill="#173457"/>
<path d="M29.3334 70.6669H28C27.6464 70.6669 27.3073 70.8074 27.0572 71.0574C26.8072 71.3074 26.6667 71.6466 26.6667 72.0002C26.6667 72.3538 26.8072 72.693 27.0572 72.943C27.3073 73.1931 27.6464 73.3335 28 73.3335H29.3334C29.687 73.3335 30.0261 73.1931 30.2762 72.943C30.5262 72.693 30.6667 72.3538 30.6667 72.0002C30.6667 71.6466 30.5262 71.3074 30.2762 71.0574C30.0261 70.8074 29.687 70.6669 29.3334 70.6669ZM74.3894 52.4562L79.6147 40.9615C79.8507 40.4494 79.9825 39.8953 80.0024 39.3317C80.0222 38.7681 79.9296 38.2062 79.7302 37.6787C79.5307 37.1512 79.2282 36.6687 78.8404 36.2592C78.4525 35.8498 77.9871 35.5216 77.4712 35.2938C76.9553 35.066 76.3992 34.9432 75.8354 34.9324C75.2715 34.9217 74.7111 35.0232 74.1869 35.2312C73.6627 35.4391 73.1851 35.7493 72.7819 36.1437C72.3788 36.5381 72.0581 37.0087 71.8387 37.5282L68.9614 44.2415C67.8624 43.5196 66.5611 43.1689 65.2482 43.2409C63.9353 43.3128 62.6801 43.8038 61.6667 44.6415C59.4242 46.7029 56.8416 48.3603 54.0334 49.5402C52.2676 50.1641 50.7228 51.2908 49.5894 52.7815C47.6552 55.2797 46.6249 58.3597 46.6667 61.5189V64.0002C45.9594 64.0002 45.2812 64.2812 44.7811 64.7813C44.281 65.2814 44 65.9596 44 66.6669V77.3335C44 78.0408 44.281 78.7191 44.7811 79.2192C45.2812 79.7193 45.9594 80.0002 46.6667 80.0002H61.3334C62.0406 80.0002 62.7189 79.7193 63.219 79.2192C63.7191 78.7191 64 78.0408 64 77.3335V66.6669C63.9986 65.9925 63.7401 65.3441 63.2774 64.8535L71.4947 56.6349C72.7037 55.428 73.6844 54.0123 74.3894 52.4562ZM61.3334 77.3335H46.6667V66.6669H61.3334V77.3335ZM60.3587 64.0002H49.3334V61.5189C49.2931 58.9671 50.1168 56.4767 51.6707 54.4522C52.4847 53.3667 53.5964 52.5408 54.8707 52.0749C58.0048 50.8001 60.886 48.976 63.3787 46.6882C63.9834 46.1856 64.7411 45.9035 65.5273 45.8882C66.3135 45.8729 67.0816 46.1254 67.7054 46.6042C67.2231 47.3286 66.6697 48.0031 66.0534 48.6175L59.9627 54.7095C59.7198 54.961 59.5854 55.2978 59.5885 55.6474C59.5915 55.997 59.7317 56.3314 59.9789 56.5786C60.2261 56.8258 60.5606 56.9661 60.9102 56.9691C61.2597 56.9721 61.5966 56.8378 61.848 56.5949L67.9387 50.5029C69.3677 49.0783 70.5093 47.3921 71.3014 45.5362L74.284 38.5789C74.3969 38.3142 74.5798 38.0854 74.8131 37.9169C75.0463 37.7484 75.321 37.6467 75.6078 37.6227C75.8945 37.5987 76.1823 37.6534 76.4403 37.7807C76.6983 37.9081 76.9167 38.1034 77.072 38.3455C77.3654 38.7989 77.4054 39.3695 77.1827 39.8602L71.9574 51.3549C71.3837 52.6193 70.5865 53.7698 69.604 54.7509L60.3587 64.0002Z" fill="#173457"/>
<path d="M52 70.6668H50.6667C50.3131 70.6668 49.9739 70.8073 49.7239 71.0574C49.4738 71.3074 49.3334 71.6465 49.3334 72.0002C49.3334 72.3538 49.4738 72.6929 49.7239 72.943C49.9739 73.193 50.3131 73.3335 50.6667 73.3335H52C52.3537 73.3335 52.6928 73.193 52.9428 72.943C53.1929 72.6929 53.3334 72.3538 53.3334 72.0002C53.3334 71.6465 53.1929 71.3074 52.9428 71.0574C52.6928 70.8073 52.3537 70.6668 52 70.6668ZM32.8 28.2668C32.5171 28.0547 32.1615 27.9636 31.8115 28.0136C31.4614 28.0636 31.1455 28.2506 30.9334 28.5335C30.7212 28.8164 30.6301 29.172 30.6801 29.5221C30.7301 29.8721 30.9171 30.188 31.2 30.4002L36.5334 34.4002C36.6784 34.509 36.8441 34.5871 37.0203 34.6296C37.1966 34.6722 37.3796 34.6784 37.5583 34.6478C37.7371 34.6173 37.9077 34.5506 38.0597 34.4518C38.2118 34.3531 38.3421 34.2243 38.4427 34.0735L49.1094 18.0735C49.3056 17.7793 49.377 17.4192 49.3077 17.0723C49.2384 16.7255 49.0342 16.4204 48.74 16.2242C48.4458 16.0279 48.0857 15.9566 47.7389 16.0258C47.3921 16.0951 47.087 16.2993 46.8907 16.5935L37.0054 31.4215L32.8 28.2668Z" fill="#173457"/>
</g>
<defs>
<clipPath id="clip0_284_202">
<rect width="80" height="80" fill="white"/>
</clipPath>
</defs>
</svg>
