<svg width="90" height="90" viewBox="0 0 90 90" fill="none" xmlns="http://www.w3.org/2000/svg">
<g clip-path="url(#clip0_389_737)">
<path d="M59.9507 37.5837C61.4503 36.0994 62.3811 34.0417 62.3811 31.7701C62.3811 27.2581 58.7095 23.5874 54.1967 23.5874C50.7192 23.5874 47.637 25.7919 46.4862 29.0222C46.0038 28.9333 45.5076 28.8844 44.9998 28.8844C44.4919 28.8844 43.9959 28.9333 43.5133 29.0222C42.3625 25.7917 39.2802 23.5874 35.8028 23.5874C31.29 23.5874 27.6184 27.2581 27.6184 31.7701C27.6184 34.0417 28.5494 36.0994 30.049 37.5837C26.4517 39.6328 24.136 43.513 24.136 47.733C24.136 48.4613 24.7263 49.0514 25.4544 49.0514C26.1824 49.0514 26.7727 48.4613 26.7727 47.733C26.7727 44.0059 29.1062 40.6214 32.5843 39.2941C33.5729 39.7186 34.6608 39.9545 35.803 39.9545C36.3061 39.9545 36.8043 39.906 37.2919 39.816C37.7087 40.9816 38.3819 42.0257 39.2443 42.88C35.6144 44.9353 33.3333 48.7868 33.3333 53.0306C33.3333 53.7589 33.9235 54.349 34.6516 54.349C35.3797 54.349 35.97 53.7589 35.97 53.0306C35.97 49.3931 38.1349 46.1269 41.4853 44.7098C41.575 44.6718 41.6578 44.6245 41.7341 44.5705C42.7352 45.0081 43.8392 45.2524 44.9998 45.2524C46.1423 45.2524 47.2304 45.0163 48.219 44.5916C51.6955 45.919 54.0295 49.307 54.0295 53.0306C54.0295 53.7589 54.6198 54.349 55.3479 54.349C56.076 54.349 56.6663 53.7589 56.6663 53.0306C56.6663 48.8144 54.35 44.9311 50.7538 42.8813C51.6169 42.0268 52.2907 40.9821 52.7076 39.816C53.1954 39.906 53.6934 39.9545 54.1965 39.9545C55.3387 39.9545 56.4267 39.7186 57.4151 39.2941C60.8931 40.6214 63.2266 44.0056 63.2266 47.733C63.2266 48.4613 63.8169 49.0514 64.545 49.0514C65.2731 49.0514 65.8634 48.4613 65.8634 47.733C65.8637 43.5128 63.548 39.6328 59.9507 37.5837ZM36.816 37.0685C36.816 37.1204 36.819 37.1713 36.8199 37.2228C36.4879 37.2847 36.1477 37.3178 35.803 37.3178C32.744 37.3178 30.2553 34.8292 30.2553 31.7701C30.2553 28.7122 32.744 26.2241 35.803 26.2241C38.1631 26.2241 40.2536 27.7216 41.0317 29.9143C38.5197 31.3132 36.816 33.9951 36.816 37.0685ZM39.4528 37.0685C39.4528 34.0099 41.9411 31.5213 44.9999 31.5213C48.0587 31.5213 50.5471 34.0097 50.5471 37.0685C50.5471 40.1273 48.0587 42.6157 44.9999 42.6157C41.9411 42.6157 39.4528 40.1271 39.4528 37.0685ZM53.1798 37.2228C53.1807 37.1713 53.1837 37.1202 53.1837 37.0685C53.1837 33.9951 51.48 31.3134 48.968 29.9145C49.7461 27.7218 51.8366 26.2243 54.1967 26.2243C57.2556 26.2243 59.7444 28.7122 59.7444 31.7702C59.7444 34.8292 57.2556 37.3179 54.1967 37.3179C53.852 37.3178 53.5118 37.2847 53.1798 37.2228Z" fill="#E7F1FD"/>
<path d="M79.1422 56.9775V33.0137C82.4285 32.3935 84.9224 29.5029 84.9224 26.0392C84.9224 22.1245 81.7378 18.9398 77.8231 18.9398C75.6717 18.9398 73.7422 19.9031 72.4393 21.4194L51.6992 9.44425C51.9571 8.70966 52.0992 7.92075 52.0992 7.09897C52.0992 3.18465 48.9145 0 45 0C41.0855 0 37.9007 3.18465 37.9007 7.09914C37.9007 7.92092 38.0425 8.70966 38.3006 9.44443L17.5606 21.4194C16.2577 19.9031 14.3281 18.9398 12.1767 18.9398C8.26204 18.9398 5.07739 22.1245 5.07739 26.0392C5.07739 29.5029 7.57139 32.3933 10.8576 33.0137V56.9775C7.57139 57.5977 5.07739 60.4883 5.07739 63.952C5.07739 67.8667 8.26204 71.0514 12.1767 71.0514C14.3248 71.0514 16.2515 70.0911 17.5544 68.579L38.3004 80.5563C38.0425 81.2907 37.9007 82.0794 37.9007 82.9008C37.9007 86.8155 41.0853 90.0002 45 90.0002C48.9147 90.0002 52.0993 86.8155 52.0993 82.9008C52.0993 82.0794 51.9575 81.2907 51.6996 80.5563L72.4456 68.579C73.7485 70.0912 75.6752 71.0514 77.8233 71.0514C81.738 71.0514 84.9226 67.8667 84.9226 63.952C84.9224 60.4881 82.4283 57.5977 79.1422 56.9775ZM77.8231 21.5766C80.2837 21.5766 82.2857 23.5786 82.2857 26.0392C82.2857 28.4998 80.2837 30.5017 77.8231 30.5017C75.3625 30.5017 73.3605 28.4998 73.3605 26.0392C73.3605 23.5786 75.3625 21.5766 77.8231 21.5766ZM45 2.63673C47.4606 2.63673 49.4626 4.63854 49.4626 7.09914C49.4626 9.55746 47.4643 11.5579 45.0069 11.5616C45.0046 11.5616 45.0023 11.5612 45 11.5612C44.9977 11.5612 44.9954 11.5616 44.9932 11.5616C42.5357 11.5579 40.5374 9.55746 40.5374 7.09914C40.5374 4.63854 42.5392 2.63673 45 2.63673ZM7.71413 26.0392C7.71413 23.5786 9.71611 21.5766 12.1767 21.5766C14.6373 21.5766 16.6393 23.5786 16.6393 26.0392C16.6393 28.4998 14.6373 30.5017 12.1767 30.5017C9.71611 30.5017 7.71413 28.4998 7.71413 26.0392ZM12.1767 68.4145C9.71611 68.4145 7.71413 66.4125 7.71413 63.9519C7.71413 61.4913 9.71611 59.4893 12.1767 59.4893C14.6373 59.4893 16.6393 61.4913 16.6393 63.9519C16.6393 66.4125 14.6373 68.4145 12.1767 68.4145ZM45 87.3633C42.5394 87.3633 40.5374 85.3613 40.5374 82.9007C40.5374 80.4401 42.5394 78.4381 45 78.4381C47.4606 78.4381 49.4626 80.4401 49.4626 82.9007C49.4626 85.3613 47.4606 87.3633 45 87.3633ZM50.3781 78.2744C49.3485 77.0791 47.9291 76.2299 46.3182 75.9262V70.8471C46.3182 70.1188 45.7279 69.5287 44.9998 69.5287C44.2717 69.5287 43.6815 70.1188 43.6815 70.8471V75.9262C42.0708 76.2301 40.6513 77.0791 39.6216 78.2744L18.8759 66.2973C19.134 65.5626 19.2759 64.7738 19.2759 63.952C19.2759 63.1296 19.1336 62.3399 18.8752 61.6046L23.2751 59.0637C23.9056 58.6995 24.1215 57.8932 23.7574 57.2627C23.3934 56.6321 22.5871 56.4164 21.9564 56.7803L17.5527 59.3235C16.5231 58.1293 15.1042 57.2809 13.4942 56.9774V33.0138C15.1047 32.7103 16.524 31.8614 17.5535 30.6666L21.9632 33.2132C22.1708 33.3331 22.3976 33.39 22.6213 33.39C23.0768 33.39 23.5199 33.1536 23.7641 32.7308C24.1283 32.1003 23.9123 31.2938 23.2818 30.9298L18.8754 28.3851C19.1335 27.6502 19.2755 26.8611 19.2755 26.0392C19.2755 25.2207 19.1347 24.435 18.8786 23.7028L39.6216 11.7259C40.6512 12.9209 42.0704 13.7699 43.6809 14.0737V19.1532C43.6809 19.8815 44.2712 20.4716 44.9993 20.4716C45.7274 20.4716 46.3177 19.8815 46.3177 19.1532V14.0737C47.9282 13.7699 49.3475 12.9209 50.377 11.7259L71.12 23.7028C70.8641 24.435 70.7231 25.2207 70.7231 26.0392C70.7231 26.8611 70.8651 27.6502 71.1232 28.3851L66.7169 30.9298C66.0863 31.2938 65.8703 32.1003 66.2345 32.7308C66.4787 33.1536 66.9218 33.39 67.3773 33.39C67.6009 33.39 67.8278 33.3331 68.0354 33.2132L72.4451 30.6666C73.4748 31.8614 74.8941 32.7103 76.5044 33.0138V56.9774C74.8944 57.2809 73.4757 58.1293 72.446 59.3235L68.0423 56.7803C67.4117 56.4168 66.6054 56.6321 66.2412 57.2627C65.877 57.8932 66.093 58.6995 66.7235 59.0637L71.1234 61.6046C70.865 62.3399 70.7228 63.1296 70.7228 63.952C70.7228 64.7738 70.8646 65.5627 71.1227 66.2973L50.3781 78.2744ZM77.8231 68.4145C75.3625 68.4145 73.3605 66.4125 73.3605 63.9519C73.3605 61.4913 75.3625 59.4893 77.8231 59.4893C80.2837 59.4893 82.2857 61.4913 82.2857 63.9519C82.2857 66.4125 80.2837 68.4145 77.8231 68.4145Z" fill="#E7F1FD"/>
<path d="M56.0423 58.6216H52.1189C51.3908 58.6216 50.8005 59.2117 50.8005 59.9399C50.8005 60.6682 51.3908 61.2583 52.1189 61.2583H56.0423C56.7704 61.2583 57.3607 60.6682 57.3607 59.9399C57.3607 59.2117 56.7704 58.6216 56.0423 58.6216Z" fill="#E7F1FD"/>
<path d="M56.0421 63.7852H33.9575C33.2294 63.7852 32.6392 64.3753 32.6392 65.1035C32.6392 65.8318 33.2294 66.4219 33.9575 66.4219H56.0423C56.7704 66.4219 57.3607 65.8318 57.3607 65.1035C57.3607 64.3753 56.7702 63.7852 56.0421 63.7852Z" fill="#E7F1FD"/>
<path d="M33.9575 61.2583H33.9758C34.7039 61.2583 35.2942 60.6682 35.2942 59.9399C35.2942 59.2117 34.7039 58.6216 33.9758 58.6216H33.9575C33.2294 58.6216 32.6392 59.2117 32.6392 59.9399C32.6392 60.6682 33.2294 61.2583 33.9575 61.2583Z" fill="#E7F1FD"/>
<path d="M38.5422 61.2583C39.2703 61.2583 39.8606 60.6682 39.8606 59.9399C39.8606 59.2117 39.2703 58.6216 38.5422 58.6216H38.5239C37.7958 58.6216 37.2056 59.2117 37.2056 59.9399C37.2056 60.6682 37.7958 61.2583 38.5239 61.2583H38.5422Z" fill="#E7F1FD"/>
<path d="M43.1089 61.2583C43.8369 61.2583 44.4272 60.6682 44.4272 59.9399C44.4272 59.2117 43.8369 58.6216 43.1089 58.6216H43.0906C42.3625 58.6216 41.7722 59.2117 41.7722 59.9399C41.7722 60.6682 42.3625 61.2583 43.0906 61.2583H43.1089Z" fill="#E7F1FD"/>
</g>
<defs>
<clipPath id="clip0_389_737">
<rect width="90" height="90" fill="white"/>
</clipPath>
</defs>
</svg>
