<svg width="80" height="80" viewBox="0 0 80 80" fill="none" xmlns="http://www.w3.org/2000/svg">
<g clip-path="url(#clip0_382_578)">
<path d="M34.9188 46.8015C35.5674 46.8015 36.0931 46.2759 36.0931 45.6273V43.2765C36.0931 42.6279 35.5674 42.1023 34.9188 42.1023C34.2703 42.1023 33.7446 42.6279 33.7446 43.2765V45.6273C33.7448 46.2759 34.2704 46.8015 34.9188 46.8015Z" fill="white"/>
<path d="M45.081 46.8015C45.7296 46.8015 46.2552 46.2759 46.2552 45.6273V43.2765C46.2552 42.6279 45.7296 42.1023 45.081 42.1023C44.4324 42.1023 43.9067 42.6279 43.9067 43.2765V45.6273C43.9067 46.2759 44.4324 46.8015 45.081 46.8015Z" fill="white"/>
<path d="M39.9999 52.1862C42.0356 52.1862 43.0823 50.9629 43.3799 50.2403C43.4606 50.0765 43.5092 49.897 43.5092 49.7037C43.5092 49.054 42.9826 48.5275 42.3329 48.5275C41.8228 48.5275 41.3888 48.8525 41.2259 49.3065C41.1801 49.3953 40.9065 49.8378 39.9999 49.8378C39.0934 49.8378 38.8196 49.3951 38.774 49.3065C38.611 48.8525 38.1771 48.5275 37.667 48.5275C37.0173 48.5275 36.4907 49.054 36.4907 49.7037C36.4907 49.897 36.5393 50.0765 36.6199 50.2403C36.9176 50.9629 37.9643 52.1862 39.9999 52.1862Z" fill="white"/>
<path d="M77.0011 34.1144L71.2517 33.2503C70.4417 29.4748 68.9708 25.9253 66.8698 22.6766L70.3255 17.9981C71.3694 16.5845 71.2252 14.6569 69.9828 13.4145L66.5853 10.017C65.3427 8.77484 63.4152 8.63047 62.0016 9.67453L57.3233 13.1302C54.0745 11.0292 50.5248 9.55828 46.7495 8.74828L45.8855 2.99891C45.6244 1.26109 44.1594 0 42.4022 0H37.5977C35.8405 0 34.3756 1.26109 34.1142 2.99891L33.25 8.74813C29.4748 9.55812 25.9252 11.0291 22.6763 13.13L17.998 9.67438C16.5847 8.63047 14.6569 8.77453 13.4142 10.0172L10.0172 13.4144C8.77469 14.6567 8.63047 16.5844 9.67453 17.9981L13.1302 22.6764C11.0292 25.9253 9.55828 29.4748 8.74828 33.2502L2.99875 34.1142C1.26109 34.3756 0 35.8406 0 37.5978V42.4023C0 44.1595 1.26109 45.6244 2.99875 45.8858L8.74828 46.7498C9.55828 50.525 11.0292 54.0748 13.1302 57.3238L9.67453 62.002C8.63062 63.4156 8.77484 65.3433 10.0172 66.5855L13.4145 69.9831C14.6627 71.2311 16.593 71.365 18.0009 70.3236L22.3606 67.0833C22.1745 67.9953 22.0736 68.9381 22.0736 69.9044V78.8259C22.0736 79.4745 22.5992 80.0002 23.2478 80.0002H56.7528C57.4014 80.0002 57.927 79.4745 57.927 78.8259V69.9044C57.927 68.9381 57.8261 67.9955 57.64 67.0833L62.0025 70.3256C63.4091 71.3656 65.3389 71.23 66.5861 69.983L69.9834 66.5855C71.2259 65.3431 71.3702 63.4155 70.3261 62.0017L66.8703 57.3233C67.5761 56.2305 68.2173 55.0906 68.7822 53.9252C69.065 53.3416 68.8213 52.6392 68.2377 52.3566C67.6537 52.0736 66.9519 52.3177 66.6691 52.9011C66.0334 54.2128 65.2928 55.4897 64.4678 56.6962C64.1858 57.1089 64.1958 57.6547 64.4928 58.0567L68.4375 63.3969C68.7855 63.8683 68.7377 64.5108 68.3233 64.9248L64.9258 68.3225C64.5116 68.7369 63.8692 68.7844 63.4008 68.4388L56.1369 63.0398C55.5664 62.0217 54.8734 61.0819 54.0777 60.2391C57.0661 58.1556 59.5775 55.4212 61.3938 52.2581C63.5259 48.5448 64.653 44.3061 64.653 40C64.653 26.4067 53.5941 15.3478 40.0008 15.3478C26.4075 15.3478 15.3478 26.4067 15.3478 40C15.3478 42.8706 15.837 45.6834 16.8017 48.3598C17.0216 48.9702 17.6945 49.2862 18.3044 49.0664C18.9144 48.8466 19.2308 48.1737 19.0109 47.5637C18.1384 45.1433 17.6961 42.5986 17.6961 40.0002C17.6961 27.7019 27.7016 17.6962 40 17.6962C52.2984 17.6962 62.3039 27.7017 62.3039 40C62.3039 43.8963 61.2848 47.7308 59.3566 51.0887C57.6195 54.1137 55.1797 56.705 52.2706 58.6263C50.627 57.3936 48.7083 56.5089 46.6223 56.0886C48.6039 54.7159 50.1416 52.747 50.9723 50.442C53.4898 50.3753 55.5177 48.308 55.5177 45.7748C55.5177 45.2094 55.4166 44.6672 55.2316 44.1652C57.1858 36.3192 56.6836 30.7013 53.7337 27.4667C51.2869 24.7838 47.9248 24.5962 46.4286 24.6645C42.9505 19.8962 37.0389 19.0942 31.1667 22.668C30.6128 23.0053 30.437 23.7275 30.7741 24.2816C31.1116 24.8355 31.8339 25.0108 32.3877 24.6742C36.3034 22.2911 41.6364 21.5275 44.8617 26.5303C45.1127 26.9192 45.5725 27.1244 46.0306 27.0539C46.0669 27.0481 49.7139 26.5244 52.0141 29.0664C54.1517 31.4287 54.6058 35.8211 53.3559 41.8388C52.8486 41.5142 52.2748 41.2853 51.6598 41.1769V38.5366C51.6598 38.0634 51.3689 37.6336 50.9325 37.4508C50.788 37.3902 47.3737 35.9116 45.4902 30.9336C45.1995 30.0853 43.9703 29.9097 43.4542 30.6427C39.4972 35.895 29.4733 37.1758 29.373 37.188C28.7834 37.2594 28.34 37.7598 28.34 38.3536V41.1769C27.7363 41.2833 27.1725 41.5056 26.672 41.8208C26.02 40.0989 25.173 36.9463 25.8342 33.297C26.1888 31.3403 27.3116 29.2631 28.9956 27.4481C29.4367 26.9727 29.4089 26.2297 28.9336 25.7887C28.458 25.3475 27.7152 25.3756 27.2742 25.8508C25.2892 27.9905 23.9572 30.4861 23.5236 32.8784C22.5905 38.0283 24.2183 42.2322 24.9388 43.7631C24.6464 44.3728 24.4823 45.0553 24.4823 45.7753C24.4823 48.3086 26.5102 50.3758 29.0277 50.4425C29.8584 52.7475 31.3961 54.7164 33.3777 56.0891C31.2919 56.5095 29.3731 57.3941 27.7297 58.6266C24.9905 56.8166 22.6547 54.4012 20.9445 51.598C20.607 51.0445 19.8844 50.8695 19.3306 51.2072C18.7772 51.5447 18.6022 52.2673 18.9398 52.8211C20.7216 55.7419 23.1177 58.2825 25.9233 60.2395C25.1275 61.0823 24.4344 62.0222 23.8641 63.0405L16.6027 68.4373C16.1316 68.7856 15.4891 68.7375 15.0748 68.3233L11.6775 64.925C11.2633 64.5109 11.2155 63.8684 11.5633 63.3972L15.5081 58.0569C15.8052 57.655 15.8152 57.1091 15.5331 56.6964C13.2098 53.2986 11.648 49.5298 10.8911 45.4945C10.7991 45.0033 10.4059 44.6242 9.91172 44.5498L3.34812 43.5633C2.76906 43.4762 2.34859 42.988 2.34859 42.4022V37.5977C2.34859 37.0117 2.76906 36.5234 3.34812 36.4364L9.91172 35.4498C10.4059 35.3756 10.7991 34.9964 10.8911 34.5052C11.648 30.4698 13.2098 26.7011 15.5331 23.3034C15.8152 22.8909 15.8053 22.345 15.5081 21.9431L11.5634 16.6028C11.2155 16.1314 11.2633 15.4889 11.6777 15.0747L15.0748 11.6773C15.4891 11.2633 16.1316 11.2152 16.6028 11.5631L21.9433 15.5078C22.3452 15.805 22.8911 15.8145 23.3036 15.5328C26.7014 13.2095 30.4702 11.6477 34.5053 10.8908C34.9966 10.7987 35.3756 10.4056 35.45 9.91141L36.4367 3.34797C36.5238 2.76875 37.012 2.34828 37.5977 2.34828H42.4022C42.988 2.34828 43.4764 2.76875 43.5633 3.34797L44.5498 9.91141C44.6242 10.4056 45.0033 10.7987 45.4945 10.8908C49.5298 11.6477 53.2986 13.2095 56.6962 15.5328C57.1087 15.8144 57.6545 15.8053 58.0566 15.5078L63.3969 11.5631C63.8684 11.2155 64.5108 11.2633 64.9248 11.6773L68.3225 15.0748C68.7367 15.4889 68.7845 16.1314 68.4367 16.6027L64.4919 21.9431C64.1948 22.345 64.1848 22.8911 64.4669 23.3034C66.7902 26.7011 68.352 30.4698 69.1089 34.5052C69.2009 34.9964 69.5941 35.3756 70.0883 35.4498L76.6517 36.4364C77.2309 36.5234 77.6514 37.0119 77.6514 37.5977V42.4022C77.6514 42.988 77.2309 43.4762 76.6517 43.5633L70.0883 44.5498C69.5941 44.6242 69.2009 45.0033 69.1089 45.4945C68.9016 46.5998 68.628 47.7045 68.2955 48.7777C68.1036 49.3972 68.4502 50.0548 69.0695 50.2467C69.69 50.4392 70.3467 50.0919 70.5386 49.4727C70.8152 48.58 71.0541 47.6673 71.2514 46.7497L77.0009 45.8856C78.7389 45.6244 80 44.1594 80 42.4023V37.5978C80 35.8406 78.7389 34.3756 77.0011 34.1144ZM51.6598 46.4994V43.6022C52.54 43.9327 53.1694 44.7805 53.1694 45.7747C53.1694 46.8055 52.4936 47.6805 51.5622 47.983C51.6242 47.4966 51.6598 47.0022 51.6598 46.4994ZM26.8306 45.7747C26.8306 44.7805 27.4598 43.9327 28.34 43.6022V46.4994C28.34 47.0022 28.3756 47.4967 28.4377 47.983C27.5064 47.6805 26.8306 46.8055 26.8306 45.7747ZM30.6884 46.4994V39.36C31.7788 39.1703 33.6225 38.7903 35.6994 38.1141C39.2889 36.9453 42.0902 35.3942 44.0558 33.4909C45.7887 36.8939 48.1336 38.5772 49.3114 39.2534V46.4994C49.3114 51.6338 45.1342 55.8108 39.9998 55.8108C34.8655 55.8108 30.6884 51.6338 30.6884 46.4994ZM39.0355 62.9131H40.9641L42.4694 71.1637L40 73.6584L37.5302 71.1636L39.0355 62.9131ZM37.9253 58.1591H42.0737L41.1395 60.5647H38.8595L37.9253 58.1591ZM24.4216 69.9044C24.4216 63.6803 29.2887 58.5742 35.4164 58.1856L36.8414 61.8547L35.11 71.3442C35.0412 71.7214 35.1609 72.1084 35.4306 72.3809L39.1655 76.1536C39.6034 76.6139 40.3966 76.6139 40.8344 76.1536L44.5686 72.3809C44.8384 72.1083 44.958 71.7214 44.8892 71.3441L43.1578 61.8547L44.5828 58.1856C50.7108 58.5739 55.5784 63.6802 55.5784 69.9044V77.6517H51.3086V71.5016C51.3086 70.853 50.783 70.3273 50.1344 70.3273C49.4858 70.3273 48.9602 70.853 48.9602 71.5016V77.6517H31.0398V71.5016C31.0398 70.853 30.5142 70.3273 29.8656 70.3273C29.217 70.3273 28.6914 70.853 28.6914 71.5016V77.6517H24.4216V69.9044Z" fill="white"/>
</g>
<defs>
<clipPath id="clip0_382_578">
<rect width="80" height="80" fill="white"/>
</clipPath>
</defs>
</svg>
