<svg width="80" height="80" viewBox="0 0 80 80" fill="none" xmlns="http://www.w3.org/2000/svg">
<path d="M44.6833 72.8206H47.0274V75.1646H44.6833V72.8206Z" fill="white"/>
<path d="M80 11.8978H56.4091V4.83545H23.5911V11.8978H0V68.1259H23.5911V75.1647H42.3392V72.8204H25.9353V16.5761H54.065V28.2751H56.4092V23.6584H77.6561V65.7819H56.4092V30.6194H54.065V72.8204H49.3717V75.1647H56.4092V68.1259H80V11.8978ZM2.34406 65.7817V23.6583H7.17703V21.314H2.34406V14.2419H23.5911V21.3142H9.52125V23.6584H23.5911V65.7819H2.34406V65.7817ZM25.9353 14.2319V7.17951H54.065V14.2319H25.9353ZM56.4091 21.3142V14.2419H77.6559V21.3142H56.4091Z" fill="white"/>
<path d="M28.3093 9.52197H30.6534V11.866H28.3093V9.52197Z" fill="white"/>
<path d="M32.9775 9.52197H35.3216V11.866H32.9775V9.52197Z" fill="white"/>
<path d="M4.76318 16.5543H7.10725V18.8984H4.76318V16.5543Z" fill="white"/>
<path d="M58.8279 16.5543H61.1719V18.8984H58.8279V16.5543Z" fill="white"/>
<path d="M30.6184 44.6973H49.3715V47.0413H30.6184V44.6973Z" fill="white"/>
<path d="M61.0923 51.7123H72.8129V54.0563H61.0923V51.7123Z" fill="white"/>
<path d="M30.6184 51.7214H49.3715V54.0655H30.6184V51.7214Z" fill="white"/>
<path d="M30.6184 58.7455H49.3715V61.0895H30.6184V58.7455Z" fill="white"/>
<path d="M30.6184 65.7817H32.9625V68.1258H30.6184V65.7817Z" fill="white"/>
<path d="M35.3066 65.7817H37.6507V68.1258H35.3066V65.7817Z" fill="white"/>
<path d="M61.0923 58.7455H63.4363V61.0895H61.0923V58.7455Z" fill="white"/>
<path d="M65.7805 58.7455H68.1246V61.0895H65.7805V58.7455Z" fill="white"/>
<path d="M7.177 51.7123H18.8976V54.0563H7.177V51.7123Z" fill="white"/>
<path d="M7.177 58.7455H9.52106V61.0895H7.177V58.7455Z" fill="white"/>
<path d="M11.8652 58.7455H14.2093V61.0895H11.8652V58.7455Z" fill="white"/>
<path d="M13.6592 35.2964L12.4637 35.2953C11.8287 35.2947 11.312 34.7755 11.312 34.1378C11.312 33.4997 11.8293 32.9803 12.4649 32.9803H17.1506V30.6366H14.2187V28.2812H11.8749V30.6875C10.227 30.9692 8.96806 32.4087 8.96806 34.1378C8.96806 36.0666 10.5351 37.6372 12.4613 37.6391L13.6568 37.6402C15.1809 37.6402 15.1909 39.9891 13.6606 39.9891H8.93774V42.3409H11.8749V44.6875H14.2187V42.287C18.3974 41.5414 17.9238 35.2964 13.6592 35.2964Z" fill="white"/>
<path d="M40.6122 28.2769L39.4169 28.2758C38.7817 28.2752 38.265 27.7558 38.265 27.1183C38.265 26.4802 38.7823 25.9608 39.418 25.9608H44.1036V23.617H41.1717V21.2617H38.828V23.668C37.18 23.9497 35.9211 25.3892 35.9211 27.1183C35.9211 29.0469 37.4881 30.6177 39.4144 30.6195L40.6098 30.6206C42.1239 30.6206 42.1239 32.9695 40.6137 32.9695H35.8906V35.3214H38.828V37.668H41.1717V35.2675C45.3505 34.5217 44.8967 28.2769 40.6122 28.2769Z" fill="white"/>
<path d="M67.6133 35.3075L66.418 35.3064C65.7829 35.3058 65.2661 34.7864 65.2661 34.1489C65.2661 33.5108 65.7835 32.9914 66.4191 32.9914H71.1047V30.6477H68.1729V28.2924H65.8291V30.6986C64.1811 30.9803 62.9222 32.4199 62.9222 34.1489C62.9222 36.0775 64.4893 37.6483 66.4155 37.6502L67.611 37.6513C69.1421 37.6513 69.1121 40.0002 67.6147 40.0002H62.8916V42.352H65.8288V44.6986H68.1725V42.2981C72.3514 41.5525 71.8849 35.3075 67.6133 35.3075Z" fill="white"/>
</svg>
