<svg width="80" height="80" viewBox="0 0 80 80" fill="none" xmlns="http://www.w3.org/2000/svg">
<path d="M40 53.75C44.4501 53.75 48.8002 52.4304 52.5003 49.9581C56.2004 47.4857 59.0843 43.9717 60.7873 39.8604C62.4903 35.7491 62.9358 31.2251 62.0677 26.8605C61.1995 22.4959 59.0566 18.4868 55.9099 15.3401C52.7632 12.1934 48.7541 10.0505 44.3895 9.18234C40.025 8.31417 35.501 8.75975 31.3896 10.4627C27.2783 12.1657 23.7643 15.0496 21.2919 18.7497C18.8196 22.4498 17.5 26.7999 17.5 31.25C17.5069 37.2152 19.8797 42.9342 24.0978 47.1522C28.3158 51.3703 34.0348 53.7431 40 53.75ZM40 11.25C43.9556 11.25 47.8224 12.423 51.1114 14.6206C54.4004 16.8182 56.9638 19.9418 58.4776 23.5963C59.9913 27.2509 60.3874 31.2722 59.6157 35.1518C58.844 39.0314 56.9392 42.5951 54.1421 45.3921C51.3451 48.1892 47.7814 50.094 43.9018 50.8657C40.0222 51.6374 36.0009 51.2414 32.3463 49.7276C28.6918 48.2138 25.5682 45.6504 23.3706 42.3614C21.173 39.0724 20 35.2056 20 31.25C20.0063 25.9476 22.1154 20.8642 25.8648 17.1148C29.6142 13.3655 34.6976 11.2563 40 11.25Z" fill="#009936"/>
<path d="M30.0375 43.4473C29.976 43.6952 29.9919 43.956 30.0832 44.1946C30.1744 44.4331 30.3365 44.638 30.5477 44.7817C30.7589 44.9253 31.009 45.0009 31.2644 44.9981C31.5198 44.9953 31.7682 44.9143 31.9762 44.7661L40 39.0361L48.0237 44.7661C48.2317 44.9143 48.4801 44.9953 48.7355 44.9981C48.9909 45.0009 49.241 44.9253 49.4522 44.7817C49.6634 44.638 49.8255 44.4331 49.9168 44.1946C50.008 43.956 50.0239 43.6952 49.9625 43.4473L47.6537 34.2073L54.55 28.4573C54.7462 28.2926 54.8871 28.0716 54.9536 27.8241C55.0201 27.5767 55.0089 27.3148 54.9216 27.0739C54.8343 26.833 54.6751 26.6248 54.4655 26.4774C54.256 26.33 54.0062 26.2505 53.75 26.2498H44.6512L41.1862 15.8548C41.104 15.6047 40.945 15.387 40.7317 15.2326C40.5185 15.0782 40.262 14.9951 39.9987 14.9951C39.7355 14.9951 39.4789 15.0782 39.2657 15.2326C39.0525 15.387 38.8934 15.6047 38.8112 15.8548L35.3487 26.2498H26.25C25.9929 26.2496 25.742 26.3287 25.5315 26.4763C25.3209 26.6239 25.1611 26.8328 25.0736 27.0745C24.9861 27.3163 24.9753 27.5792 25.0427 27.8273C25.11 28.0754 25.2523 28.2967 25.45 28.4611L32.3462 34.2111L30.0375 43.4473ZM29.7025 28.7498H36.25C36.5124 28.7499 36.7682 28.6673 36.9812 28.5139C37.1941 28.3604 37.3533 28.1438 37.4362 27.8948L40 20.2023L42.5637 27.8948C42.6466 28.1438 42.8059 28.3604 43.0188 28.5139C43.2317 28.6673 43.4875 28.7499 43.75 28.7498H50.2975L45.45 32.7886C45.2693 32.9391 45.1348 33.1375 45.0618 33.361C44.9888 33.5846 44.9804 33.8242 45.0375 34.0523L46.7137 40.7586L40.7262 36.4836C40.5143 36.3323 40.2604 36.2509 40 36.2509C39.7396 36.2509 39.4857 36.3323 39.2737 36.4836L33.2862 40.7586L34.9625 34.0523C35.0195 33.8242 35.0111 33.5846 34.9381 33.361C34.8652 33.1375 34.7306 32.9391 34.55 32.7886L29.7025 28.7498Z" fill="#009936"/>
<path d="M78.3838 56.6162L66.5238 44.75C67.2632 43.9095 67.7557 42.8808 67.947 41.7778C68.1383 40.6748 68.0208 39.5404 67.6075 38.5C67.4119 38.0134 67.3646 37.4799 67.4716 36.9665C67.5786 36.4531 67.8351 35.9829 68.2088 35.615C69.3212 34.488 69.9613 32.9788 69.9982 31.3957C70.0351 29.8126 69.4661 28.2751 68.4075 27.0975C68.1198 26.7794 67.9252 26.3882 67.8452 25.9668C67.7651 25.5455 67.8027 25.1102 67.9538 24.7087C68.5042 23.2324 68.4732 21.602 67.867 20.1476C67.2608 18.6932 66.1248 17.5234 64.6888 16.875C64.1975 16.6612 63.7795 16.3086 63.4859 15.8604C63.1923 15.4123 63.0361 14.8882 63.0363 14.3525C63.0163 12.7756 62.3973 11.2653 61.305 10.1279C60.2126 8.99053 58.7285 8.31113 57.1538 8.22749C56.7254 8.20638 56.3111 8.06756 55.9565 7.82631C55.6019 7.58505 55.3207 7.25069 55.1438 6.85999C54.4867 5.41791 53.3035 4.28142 51.8361 3.68307C50.3687 3.08473 48.7281 3.06976 47.25 3.64124C46.7651 3.83583 46.2335 3.88281 45.722 3.77628C45.2105 3.66976 44.7419 3.41447 44.375 3.04249C43.2479 1.92945 41.7383 1.28889 40.1547 1.25171C38.5711 1.21454 37.0331 1.78356 35.855 2.84249C35.537 3.13034 35.1458 3.32498 34.7244 3.40503C34.303 3.48508 33.8677 3.44744 33.4663 3.29624C31.9891 2.74208 30.3563 2.77119 28.8998 3.37766C27.4433 3.98413 26.2724 5.12244 25.625 6.56124C25.4109 7.05241 25.058 7.47034 24.6097 7.76369C24.1613 8.05704 23.6371 8.21303 23.1013 8.21249C21.5242 8.2325 20.0137 8.85161 18.8763 9.94424C17.7389 11.0369 17.0596 12.5212 16.9763 14.0962C16.9542 14.5253 16.8141 14.9401 16.5715 15.2947C16.3289 15.6493 15.9932 15.9301 15.6013 16.1062C14.1608 16.7648 13.0263 17.9488 12.4299 19.4161C11.8334 20.8834 11.8201 22.5232 12.3925 24C12.586 24.4852 12.6321 25.0168 12.5252 25.5281C12.4182 26.0394 12.163 26.5079 11.7913 26.875C10.6788 28.002 10.0388 29.5112 10.0018 31.0943C9.96488 32.6774 10.5339 34.2148 11.5925 35.3925C11.88 35.7107 12.0744 36.1019 12.1544 36.5232C12.2345 36.9445 12.197 37.3798 12.0463 37.7812C11.6053 38.9412 11.5271 40.2077 11.822 41.4131C12.1169 42.6185 12.7709 43.7058 13.6975 44.5312L1.61626 56.6162C1.45831 56.774 1.34549 56.9711 1.28952 57.1872C1.23354 57.4033 1.23645 57.6304 1.29794 57.845C1.35943 58.0596 1.47726 58.2538 1.63919 58.4075C1.80112 58.5611 2.00124 58.6686 2.21876 58.7187L17.7075 62.2925L21.2813 77.7812C21.3314 77.9987 21.4389 78.1989 21.5925 78.3608C21.7462 78.5227 21.9404 78.6406 22.155 78.702C22.3695 78.7635 22.5967 78.7665 22.8128 78.7105C23.0289 78.6545 23.226 78.5417 23.3838 78.3837L40 61.7675L56.6163 78.3837C56.774 78.5417 56.9712 78.6545 57.1872 78.7105C57.4033 78.7665 57.6305 78.7635 57.8451 78.702C58.0596 78.6406 58.2538 78.5227 58.4075 78.3608C58.5611 78.1989 58.6686 77.9987 58.7188 77.7812L62.2925 62.2925L77.7813 58.7187C77.9988 58.6686 78.1989 58.5611 78.3608 58.4075C78.5228 58.2538 78.6406 58.0596 78.7021 57.845C78.7636 57.6304 78.7665 57.4033 78.7105 57.1872C78.6545 56.9711 78.5417 56.774 78.3838 56.6162ZM16.9638 48.1475C16.9837 49.7244 17.6027 51.2346 18.6951 52.372C19.7874 53.5094 21.2715 54.1888 22.8463 54.2725C23.2746 54.2936 23.6889 54.4324 24.0435 54.6737C24.3981 54.9149 24.6793 55.2493 24.8563 55.64C25.5133 57.0821 26.6966 58.2186 28.164 58.8169C29.6314 59.4152 31.2719 59.4302 32.75 58.8587C33.236 58.6623 33.7694 58.6143 34.2827 58.7208C34.796 58.8274 35.2661 59.0838 35.6338 59.4575C36.1779 59.9912 36.8162 60.4197 37.5163 60.7212L26.9663 71.2712L23.7188 57.2187C23.6661 56.9903 23.5503 56.7812 23.3845 56.6155C23.2188 56.4497 23.0097 56.3339 22.7813 56.2812L8.72876 53.0387L15.8213 45.9462C16.1721 46.1967 16.4586 46.5269 16.6572 46.9095C16.8558 47.2921 16.9608 47.7164 16.9638 48.1475ZM64.39 46.3975C64.4425 46.3737 64.4888 46.3375 64.5413 46.3112L71.2713 53.0425L57.2188 56.2812C56.9903 56.3339 56.7812 56.4497 56.6155 56.6155C56.4497 56.7812 56.3339 56.9903 56.2813 57.2187L53.0388 71.2712L42.4788 60.7112C43.0881 60.4514 43.6519 60.0956 44.1488 59.6575C44.4673 59.3706 44.8585 59.1766 45.2797 59.0966C45.7009 59.0166 46.1359 59.0537 46.5375 59.2037C48.0143 59.7556 49.6457 59.7253 51.101 59.119C52.5564 58.5127 53.7267 57.3758 54.375 55.9387C54.5891 55.4476 54.942 55.0296 55.3903 54.7363C55.8387 54.4429 56.363 54.2869 56.8988 54.2875C58.4758 54.2675 59.9863 53.6484 61.1237 52.5557C62.2612 51.4631 62.9404 49.9787 63.0238 48.4037C63.045 47.9756 63.1838 47.5615 63.4248 47.207C63.6658 46.8524 63.9997 46.5711 64.39 46.3937V46.3975ZM12.5 31.25C12.4979 30.2711 12.883 29.331 13.5713 28.635C14.2816 27.9244 14.7691 27.0219 14.974 26.0383C15.179 25.0547 15.0924 24.0326 14.725 23.0975C14.3839 22.2146 14.3929 21.2347 14.7499 20.3582C15.107 19.4816 15.7853 18.7745 16.6463 18.3812C17.4541 18.0157 18.1456 17.4347 18.6448 16.702C19.1441 15.9692 19.4317 15.113 19.4763 14.2275C19.5266 13.2866 19.9327 12.4 20.6123 11.7474C21.2919 11.0947 22.1941 10.7248 23.1363 10.7125C24.147 10.7046 25.134 10.4057 25.9793 9.85147C26.8246 9.29726 27.4923 8.51125 27.9025 7.58749C28.2894 6.72825 28.9888 6.0485 29.8588 5.68632C30.7287 5.32413 31.7039 5.30667 32.5863 5.63749C33.4159 5.94967 34.3155 6.02744 35.1864 5.8623C36.0573 5.69716 36.866 5.29546 37.5238 4.70124C38.2381 4.08938 39.1537 3.7636 40.094 3.78668C41.0343 3.80976 41.9328 4.18007 42.6163 4.82624C43.3265 5.53634 44.2285 6.02374 45.2117 6.22868C46.1949 6.43363 47.2165 6.34719 48.1513 5.97999C49.0345 5.63668 50.0155 5.64387 50.8937 6.00009C51.7718 6.35631 52.4806 7.03462 52.875 7.89624C53.2406 8.70399 53.8217 9.39541 54.5544 9.89463C55.2871 10.3939 56.1432 10.6816 57.0288 10.7262C57.9698 10.7763 58.8566 11.1825 59.5092 11.8625C60.1617 12.5424 60.5311 13.4451 60.5425 14.3875C60.5511 15.3979 60.8503 16.3845 61.4045 17.2294C61.9586 18.0744 62.7442 18.742 63.6675 19.1525C64.5264 19.5399 65.2059 20.2392 65.5685 21.1089C65.931 21.9785 65.9494 22.9535 65.62 23.8362C65.3076 24.6664 65.2299 25.5665 65.3952 26.4378C65.5606 27.3092 65.9627 28.1183 66.5575 28.7762C67.189 29.4807 67.5277 30.3996 67.5044 31.3454C67.4812 32.2912 67.0978 33.1924 66.4325 33.865C65.7222 34.5756 65.2347 35.478 65.0297 36.4617C64.8248 37.4453 64.9113 38.4673 65.2788 39.4025C65.6214 40.2866 65.6129 41.2683 65.255 42.1464C64.8971 43.0245 64.2169 43.7324 63.3538 44.125C62.5459 44.4905 61.8544 45.0715 61.3552 45.8043C60.8559 46.537 60.5683 47.3932 60.5238 48.2787C60.4734 49.2196 60.0673 50.1062 59.3877 50.7588C58.7082 51.4115 57.8059 51.7814 56.8638 51.7937C55.853 51.8015 54.8659 52.1003 54.0206 52.6546C53.1753 53.2088 52.5076 53.9949 52.0975 54.9187C51.7106 55.778 51.0113 56.458 50.1416 56.8209C49.2718 57.1837 48.2966 57.2021 47.4138 56.8725C46.5841 56.5606 45.6846 56.483 44.8137 56.6481C43.9428 56.8132 43.1342 57.2148 42.4763 57.8087C41.762 58.4209 40.8464 58.7468 39.906 58.7237C38.9656 58.7006 38.0671 58.3302 37.3838 57.6837C36.4203 56.7183 35.1139 56.1737 33.75 56.1687C33.101 56.1695 32.4576 56.2903 31.8525 56.525C30.9694 56.8661 29.9894 56.8572 29.1126 56.5002C28.2359 56.1431 27.5285 55.4648 27.135 54.6037C26.7694 53.796 26.1883 53.1046 25.4556 52.6053C24.7229 52.1061 23.8668 51.8184 22.9813 51.7737C22.0402 51.7237 21.1534 51.3174 20.5009 50.6375C19.8483 49.9576 19.4789 49.0548 19.4675 48.1125C19.4589 47.1021 19.1597 46.1155 18.6056 45.2705C18.0514 44.4256 17.2658 43.758 16.3425 43.3475C15.4836 42.9601 14.8041 42.2607 14.4416 41.3911C14.079 40.5214 14.0606 39.5465 14.39 38.6637C14.7021 37.8336 14.7797 36.9335 14.6144 36.0622C14.449 35.1909 14.047 34.3818 13.4525 33.7237C12.839 33.0459 12.4995 32.1642 12.5 31.25ZM23.2113 75.0225L19.9688 60.9687C19.9161 60.7403 19.8003 60.5312 19.6345 60.3655C19.4688 60.1997 19.2597 60.0839 19.0313 60.0312L4.97876 56.79L6.64376 55.125L21.4575 58.5437L24.875 73.3562L23.2113 75.0225ZM60.9688 60.0312C60.7403 60.0839 60.5312 60.1997 60.3655 60.3655C60.1997 60.5312 60.0839 60.7403 60.0313 60.9687L56.7888 75.0225L55.125 73.3562L58.5438 58.5425L73.3563 55.125L75.0213 56.7912L60.9688 60.0312Z" fill="#009936"/>
</svg>
