<svg width="80" height="80" viewBox="0 0 80 80" fill="none" xmlns="http://www.w3.org/2000/svg">
<path d="M56.25 48.75C55.9185 48.75 55.6005 48.6183 55.3661 48.3839C55.1317 48.1495 55 47.8315 55 47.5V32.5H30V40C30 40.3315 29.8683 40.6495 29.6339 40.8839C29.3995 41.1183 29.0815 41.25 28.75 41.25C28.4185 41.25 28.1005 41.1183 27.8661 40.8839C27.6317 40.6495 27.5 40.3315 27.5 40V31.25C27.5 30.9185 27.6317 30.6005 27.8661 30.3661C28.1005 30.1317 28.4185 30 28.75 30H56.25C56.5815 30 56.8995 30.1317 57.1339 30.3661C57.3683 30.6005 57.5 30.9185 57.5 31.25V47.5C57.5 47.8315 57.3683 48.1495 57.1339 48.3839C56.8995 48.6183 56.5815 48.75 56.25 48.75Z" fill="#009936"/>
<path d="M56.25 37.5H28.75C28.4185 37.5 28.1005 37.3683 27.8661 37.1339C27.6317 36.8995 27.5 36.5815 27.5 36.25C27.5 35.9185 27.6317 35.6005 27.8661 35.3661C28.1005 35.1317 28.4185 35 28.75 35H56.25C56.5815 35 56.8995 35.1317 57.1339 35.3661C57.3683 35.6005 57.5 35.9185 57.5 36.25C57.5 36.5815 57.3683 36.8995 57.1339 37.1339C56.8995 37.3683 56.5815 37.5 56.25 37.5ZM56.25 42.5H47.7875C47.456 42.5 47.138 42.3683 46.9036 42.1339C46.6692 41.8995 46.5375 41.5815 46.5375 41.25C46.5375 40.9185 46.6692 40.6005 46.9036 40.3661C47.138 40.1317 47.456 40 47.7875 40H56.25C56.5815 40 56.8995 40.1317 57.1339 40.3661C57.3683 40.6005 57.5 40.9185 57.5 41.25C57.5 41.5815 57.3683 41.8995 57.1339 42.1339C56.8995 42.3683 56.5815 42.5 56.25 42.5ZM42.5 31.25C39.5333 31.25 36.6332 30.3703 34.1664 28.722C31.6997 27.0738 29.7771 24.7311 28.6418 21.9903C27.5065 19.2494 27.2094 16.2334 27.7882 13.3237C28.367 10.4139 29.7956 7.74119 31.8934 5.6434C33.9912 3.54562 36.6639 2.11701 39.5736 1.53823C42.4834 0.959449 45.4994 1.2565 48.2403 2.39181C50.9811 3.52713 53.3238 5.44972 54.972 7.91645C56.6203 10.3832 57.5 13.2833 57.5 16.25C57.4957 20.2269 55.914 24.0397 53.1019 26.8519C50.2897 29.664 46.4769 31.2457 42.5 31.25ZM42.5 3.75001C40.0277 3.75001 37.611 4.48312 35.5554 5.85664C33.4998 7.23015 31.8976 9.18239 30.9515 11.4665C30.0054 13.7505 29.7579 16.2639 30.2402 18.6886C30.7225 21.1134 31.913 23.3407 33.6612 25.0888C35.4093 26.837 37.6366 28.0275 40.0614 28.5098C42.4861 28.9921 44.9995 28.7446 47.2835 27.7985C49.5676 26.8524 51.5199 25.2502 52.8934 23.1946C54.2669 21.139 55 18.7223 55 16.25C54.9964 12.9359 53.6782 9.75861 51.3348 7.41519C48.9914 5.07178 45.8141 3.75365 42.5 3.75001Z" fill="#009936"/>
<path d="M43.75 22.5H38.75C38.4185 22.5 38.1005 22.3683 37.8661 22.1339C37.6317 21.8995 37.5 21.5815 37.5 21.25C37.5 20.9185 37.6317 20.6005 37.8661 20.3661C38.1005 20.1317 38.4185 20 38.75 20H43.75C44.0815 20 44.3995 19.8683 44.6339 19.6339C44.8683 19.3995 45 19.0815 45 18.75C45 18.4185 44.8683 18.1005 44.6339 17.8661C44.3995 17.6317 44.0815 17.5 43.75 17.5H41.25C40.2554 17.5 39.3016 17.1049 38.5983 16.4017C37.8951 15.6984 37.5 14.7446 37.5 13.75C37.5 12.7554 37.8951 11.8016 38.5983 11.0983C39.3016 10.3951 40.2554 10 41.25 10H46.25C46.5815 10 46.8995 10.1317 47.1339 10.3661C47.3683 10.6005 47.5 10.9185 47.5 11.25C47.5 11.5815 47.3683 11.8995 47.1339 12.1339C46.8995 12.3683 46.5815 12.5 46.25 12.5H41.25C40.9185 12.5 40.6005 12.6317 40.3661 12.8661C40.1317 13.1005 40 13.4185 40 13.75C40 14.0815 40.1317 14.3995 40.3661 14.6339C40.6005 14.8683 40.9185 15 41.25 15H43.75C44.7446 15 45.6984 15.3951 46.4016 16.0983C47.1049 16.8016 47.5 17.7554 47.5 18.75C47.5 19.7446 47.1049 20.6984 46.4016 21.4017C45.6984 22.1049 44.7446 22.5 43.75 22.5Z" fill="#009936"/>
<path d="M42.5 12.5C42.1685 12.5 41.8505 12.3683 41.6161 12.1339C41.3817 11.8995 41.25 11.5815 41.25 11.25V8.75C41.25 8.41848 41.3817 8.10054 41.6161 7.86612C41.8505 7.6317 42.1685 7.5 42.5 7.5C42.8315 7.5 43.1495 7.6317 43.3839 7.86612C43.6183 8.10054 43.75 8.41848 43.75 8.75V11.25C43.75 11.5815 43.6183 11.8995 43.3839 12.1339C43.1495 12.3683 42.8315 12.5 42.5 12.5ZM42.5 25C42.1685 25 41.8505 24.8683 41.6161 24.6339C41.3817 24.3995 41.25 24.0815 41.25 23.75V21.25C41.25 20.9185 41.3817 20.6005 41.6161 20.3661C41.8505 20.1317 42.1685 20 42.5 20C42.8315 20 43.1495 20.1317 43.3839 20.3661C43.6183 20.6005 43.75 20.9185 43.75 21.25V23.75C43.75 24.0815 43.6183 24.3995 43.3839 24.6339C43.1495 24.8683 42.8315 25 42.5 25ZM23.75 78.75C23.4185 78.7499 23.1006 78.6182 22.8662 78.3838L1.61625 57.1338C1.38191 56.8993 1.25027 56.5815 1.25027 56.25C1.25027 55.9185 1.38191 55.6007 1.61625 55.3662L10.3663 46.6162C10.6007 46.3819 10.9185 46.2503 11.25 46.2503C11.5815 46.2503 11.8993 46.3819 12.1337 46.6162L33.3838 67.8662C33.6181 68.1007 33.7497 68.4185 33.7497 68.75C33.7497 69.0815 33.6181 69.3993 33.3838 69.6338L24.6338 78.3838C24.3994 78.6182 24.0815 78.7499 23.75 78.75ZM4.2675 56.25L23.75 75.7325L30.7325 68.75L11.25 49.2675L4.2675 56.25Z" fill="#009936"/>
<path d="M13.75 51.25C13.5028 51.2499 13.2612 51.1766 13.0557 51.0393C12.8502 50.9019 12.69 50.7067 12.5954 50.4783C12.5008 50.2499 12.4761 49.9987 12.5243 49.7562C12.5725 49.5138 12.6915 49.2911 12.8663 49.1162L22.8663 39.1162C23.1006 38.8818 23.4185 38.7501 23.75 38.75H45C46.3261 38.75 47.5979 39.2768 48.5355 40.2145C49.4732 41.1521 50 42.4239 50 43.75C50 45.0761 49.4732 46.3479 48.5355 47.2855C47.5979 48.2232 46.3261 48.75 45 48.75H36.25C35.9185 48.75 35.6005 48.6183 35.3661 48.3839C35.1317 48.1495 35 47.8315 35 47.5C35 47.1685 35.1317 46.8505 35.3661 46.6161C35.6005 46.3817 35.9185 46.25 36.25 46.25H45C45.663 46.25 46.2989 45.9866 46.7678 45.5178C47.2366 45.0489 47.5 44.413 47.5 43.75C47.5 43.087 47.2366 42.4511 46.7678 41.9822C46.2989 41.5134 45.663 41.25 45 41.25H24.2675L14.6338 50.8838C14.3994 51.1182 14.0815 51.2499 13.75 51.25Z" fill="#009936"/>
<path d="M30 67.5001C29.7528 67.5001 29.5112 67.4267 29.3057 67.2894C29.1002 67.152 28.94 66.9568 28.8454 66.7284C28.7508 66.5 28.7261 66.2488 28.7743 66.0063C28.8225 65.7639 28.9415 65.5412 29.1162 65.3664L35.3662 59.1164C35.6006 58.8819 35.9185 58.7502 36.25 58.7501H54.4613L75.625 36.3676C76.0487 35.9305 76.2814 35.343 76.2719 34.7343C76.2624 34.1256 76.0115 33.5457 75.5744 33.122C75.1373 32.6983 74.5498 32.4656 73.9411 32.4751C73.3324 32.4846 72.7524 32.7355 72.3288 33.1726L57.135 48.3839C57.0188 48.5001 56.8808 48.5923 56.729 48.6551C56.5771 48.7179 56.4143 48.7502 56.25 48.7501H43.75C43.4185 48.7501 43.1005 48.6184 42.8661 48.384C42.6317 48.1496 42.5 47.8316 42.5 47.5001C42.5 47.1686 42.6317 46.8506 42.8661 46.6162C43.1005 46.3818 43.4185 46.2501 43.75 46.2501H55.7312L70.5587 31.4039C71.4556 30.543 72.6517 30.064 73.8949 30.0679C75.138 30.0718 76.3311 30.5581 77.2226 31.4245C78.1141 32.2909 78.6344 33.4696 78.6738 34.7122C78.7132 35.9547 78.2686 37.164 77.4337 38.0851L55.9088 60.8601C55.7918 60.9835 55.6508 61.0817 55.4946 61.1488C55.3383 61.2159 55.17 61.2503 55 61.2501H36.7675L30.8838 67.1339C30.6494 67.3683 30.3315 67.5 30 67.5001Z" fill="#009936"/>
</svg>
