<svg width="91" height="91" viewBox="0 0 91 91" fill="none" xmlns="http://www.w3.org/2000/svg">
<path d="M79.2089 22.0072C80.0614 22.0072 80.8832 21.669 81.4894 21.0625L90.4238 12.1282C91.6176 10.9344 90.8402 8.88546 89.1581 8.77988L84.4038 8.48147L87.5061 5.37912C88.0267 4.85854 88.0267 4.01448 87.5061 3.49407C86.9853 2.97349 86.1415 2.97349 85.6209 3.49407L82.5185 6.59642L82.2201 1.84204C82.1144 0.156941 80.0635 -0.615136 78.8718 0.576393L69.9373 9.51073C69.283 10.165 68.9412 11.0698 68.9992 11.9931L69.3063 16.8858C61.8497 10.5279 52.2394 6.88186 42.0592 6.88186C18.8133 6.88186 0 25.6929 0 48.9408C0 59.4327 3.88527 69.4816 10.9404 77.2361C11.4361 77.7805 12.2791 77.8203 12.8235 77.325C13.3681 76.8294 13.4079 75.9865 12.9126 75.4419C6.30494 68.1793 2.66601 58.7678 2.66601 48.9408C2.66601 27.2194 20.3377 9.5477 42.0592 9.5477C52.2383 9.5477 61.8168 13.449 68.9814 20.1334L62.899 26.2156C57.3983 21.1663 50.0744 18.0764 42.0592 18.0764C25.0406 18.0764 11.1949 31.9221 11.1949 48.9407C11.1949 53.8387 12.3765 58.7173 14.6124 63.0494C14.6126 63.0496 14.6126 63.0497 14.6128 63.0499C19.7935 73.0885 30.2274 79.8049 42.0593 79.8049C56.6387 79.8049 69.3188 69.5072 72.2823 55.2161C72.4318 54.4952 71.9686 53.7896 71.2477 53.6401C70.527 53.4907 69.8214 53.9538 69.6719 54.6747C66.9725 67.6913 55.3599 77.1389 42.0595 77.1389C31.465 77.1389 21.8556 71.2717 16.982 61.8273C16.982 61.8271 16.9818 61.8269 16.9818 61.8267C14.9112 57.8144 13.8611 53.4789 13.8611 48.9407C13.8611 33.3921 26.5108 20.7425 42.0593 20.7425C49.3411 20.7425 55.9987 23.5332 61.0145 28.1001L54.9863 34.1283C51.5269 31.1054 47.0035 29.2712 42.0593 29.2712C31.2136 29.2712 22.39 38.0948 22.39 48.9405C22.39 59.7862 31.2136 68.6098 42.0593 68.6098C52.905 68.6098 61.7288 59.7862 61.7288 48.9405C61.7288 43.9963 59.8946 39.473 56.8715 36.0135L62.9001 29.985C67.4316 34.9605 70.2158 41.5537 70.257 48.7764C70.2611 49.5099 70.8572 50.1018 71.5898 50.1018H71.5977C72.3338 50.0975 72.9271 49.4973 72.923 48.7612C72.8775 40.8102 69.7954 33.5564 64.7853 28.0996L70.8681 22.0168C77.5237 29.1331 81.4523 38.6547 81.4523 48.9403C81.4521 70.6623 63.7806 88.334 42.0592 88.334C33.0607 88.334 24.2618 85.2212 17.2834 79.569C16.7109 79.1059 15.8722 79.1938 15.4085 79.7658C14.9451 80.3379 15.0333 81.1774 15.6052 81.6407C23.0569 87.6762 32.4517 91 42.0592 91C65.305 91 84.1183 72.189 84.1183 48.9408C84.1183 39.8386 81.2579 31.1756 75.8466 23.8889C75.2864 23.1344 74.7029 22.403 74.0998 21.6926C79.3254 22.0209 79.0436 22.0072 79.2089 22.0072ZM59.0626 48.9408C59.0626 58.3165 51.435 65.9441 42.0592 65.9441C32.6835 65.9441 25.0559 58.3165 25.0559 48.9408C25.0559 39.5652 32.6835 31.9376 42.0592 31.9376C46.2683 31.9376 50.1244 33.4755 53.0968 36.018L47.0307 42.084C45.633 41.0679 43.9154 40.4663 42.0592 40.4663C37.3864 40.4663 33.5846 44.268 33.5846 48.9408C33.5846 53.6137 37.3864 57.4154 42.0592 57.4154C46.7321 57.4154 50.5339 53.6137 50.5339 48.9408C50.5339 47.0844 49.9322 45.3668 48.9161 43.9693L54.9822 37.9032C57.5245 40.8756 59.0626 44.7318 59.0626 48.9408ZM41.1165 49.8835C41.6372 50.4041 42.4811 50.4041 43.0017 49.8835L46.9975 45.8877C47.5485 46.7755 47.8677 47.8215 47.8677 48.941C47.8677 52.144 45.2619 54.7495 42.059 54.7495C38.856 54.7495 36.2505 52.1438 36.2505 48.941C36.2505 45.7383 38.856 43.1325 42.059 43.1325C43.1785 43.1325 44.2245 43.4517 45.1123 44.0025L41.1163 47.9985C40.5959 48.5189 40.5959 49.363 41.1165 49.8835ZM71.66 11.8261C71.6499 11.6659 71.7093 11.509 71.8227 11.3958L79.6568 3.56179L80.005 9.10994L71.9924 17.1225L71.66 11.8261ZM73.8776 19.0076L81.8902 10.995L87.4384 11.3432L79.6042 19.1773C79.491 19.2907 79.3328 19.351 79.1739 19.34L73.8776 19.0076Z" fill="#E7F1FD"/>
</svg>
