<svg width="80" height="80" viewBox="0 0 80 80" fill="none" xmlns="http://www.w3.org/2000/svg">
<g clip-path="url(#clip0_382_674)">
<path d="M73.5811 5.82068H63.356C62.7088 5.82068 62.1841 6.34537 62.1841 6.99255C62.1841 7.63974 62.7088 8.16443 63.356 8.16443H73.5811C74.2283 8.16443 74.753 7.63974 74.753 6.99255C74.753 6.34537 74.2285 5.82068 73.5811 5.82068Z" fill="white"/>
<path d="M57.5493 8.16443H58.7957C59.4429 8.16443 59.9676 7.63974 59.9676 6.99255C59.9676 6.34537 59.4429 5.82068 58.7957 5.82068H57.5493C56.9021 5.82068 56.3774 6.34537 56.3774 6.99255C56.3774 7.63974 56.9021 8.16443 57.5493 8.16443Z" fill="white"/>
<path d="M57.5493 13.6694H73.5812C74.2284 13.6694 74.7531 13.1447 74.7531 12.4976C74.7531 11.8504 74.2284 11.3257 73.5812 11.3257H57.5493C56.9021 11.3257 56.3774 11.8504 56.3774 12.4976C56.3774 13.1447 56.9021 13.6694 57.5493 13.6694Z" fill="white"/>
<path d="M61.788 69.3907C61.788 64.7096 60.2252 60.1172 57.3786 56.4068L57.5958 52.406C57.7436 49.6826 55.5823 47.3785 52.8336 47.3785H40.0058C39.4156 46.9615 39.0577 46.2841 39.0577 45.5526V42.2805C41.0466 40.9943 42.443 39.5274 43.4688 37.7818H45.7366C48.3602 37.7818 50.4945 35.6474 50.4945 33.0238V24.2719C50.4945 22.7958 49.6406 21.491 48.3636 20.8737V14.7315C48.3636 11.9352 46.0887 9.66022 43.2925 9.66022H43.1611C43.0811 9.66022 43.0161 9.59506 43.0161 9.51522C43.0161 6.71897 40.7411 4.44397 37.9448 4.44397H25.5341C19.3736 4.44397 14.3616 9.456 14.3616 15.6165V20.8735C13.0847 21.4908 12.2306 22.7957 12.2306 24.2718V28.7227C12.2306 30.8052 13.9248 32.4994 16.0073 32.4994H17.5202C17.9117 35.8113 19.4653 38.836 21.8987 40.9388C22.4697 41.4323 23.0602 41.873 23.6675 42.2668V45.5524C23.6675 46.2818 23.3081 46.9593 22.7153 47.3783H9.89203C7.16453 47.3783 4.98094 49.6612 5.13 52.4058L5.34719 56.4066C2.50047 60.1173 0.937656 64.7096 0.937656 69.3907V73.8046C0.355 74.4576 0 75.3177 0 76.2596C0 78.2952 1.65609 79.9512 3.69172 79.9512H59.0339C61.0695 79.9512 62.7256 78.2951 62.7256 76.2596C62.7256 75.3177 62.3706 74.4576 61.788 73.8047V69.3907ZM59.4442 69.3907V72.5912C59.3094 72.5762 59.1727 72.5679 59.0339 72.5679H56.5014L57.1628 60.3819C58.6461 63.1368 59.4442 66.2404 59.4442 69.3907ZM48.0306 23.6997C48.1077 23.876 48.1511 24.0694 48.1511 24.2721V28.723C48.1511 29.5132 47.5083 30.156 46.7181 30.156H45.3245V25.7383L46.0467 25.4868C46.9402 25.1755 47.6428 24.5193 48.0306 23.6997ZM40.2067 37.2776H37.2658C36.7917 37.2776 36.4059 36.8919 36.4059 36.4179C36.4059 35.9438 36.7917 35.5582 37.2658 35.5582H40.2067C40.6808 35.5582 41.0664 35.9438 41.0664 36.4179C41.0664 36.8919 40.6808 37.2776 40.2067 37.2776ZM45.7369 35.4382H44.5523C44.8823 34.4973 45.1102 33.5116 45.2303 32.4998H46.7181C47.2252 32.4998 47.7089 32.3987 48.1511 32.2166V33.0241C48.1511 34.3552 47.068 35.4382 45.7369 35.4382ZM16.7056 15.6168C16.7056 10.7487 20.6663 6.78803 25.5344 6.78803H37.9452C39.4491 6.78803 40.6727 8.01163 40.6727 9.51553C40.6727 10.8879 41.7892 12.0043 43.1614 12.0043H43.2928C44.7967 12.0043 46.0202 13.2279 46.0202 14.7318V22.226C46.0202 22.6976 45.7209 23.1185 45.2756 23.2737L42.813 24.1313C42.7137 24.1657 42.6114 24.0941 42.6114 23.9874L42.6159 19.3305C42.6302 15.9319 39.4478 12.9679 34.9891 14.4001C32.7466 15.1207 29.9714 15.1182 27.7364 14.4001C23.3239 12.9819 20.0953 15.8933 20.1095 19.3269L20.115 23.9877C20.115 24.0952 20.0103 24.166 19.9134 24.1313L17.45 23.2735C17.0047 23.1185 16.7055 22.6974 16.7055 22.2258L16.7056 15.6168ZM14.5747 28.723V24.2719C14.5747 24.0694 14.6181 23.8758 14.6952 23.6996C15.0831 24.5193 15.7858 25.1755 16.6795 25.4868L17.4016 25.7382V30.1558H16.0078C15.2175 30.156 14.5747 29.513 14.5747 28.723ZM19.7667 31.1462C19.7278 29.6055 19.7517 27.9702 19.7452 26.473C19.8173 26.4793 19.8897 26.4829 19.962 26.4829C21.3553 26.4829 22.4611 25.3504 22.4587 23.9843L22.4533 19.3205C22.4453 17.4177 24.1522 15.7098 27.0194 16.6313C29.7369 17.5044 32.9975 17.5018 35.7061 16.6313C38.4378 15.7537 40.2806 17.2988 40.2722 19.3244L40.2677 23.9846C40.2658 25.4371 41.5073 26.6008 42.9805 26.473V31.241C42.9464 32.2538 42.7797 33.2423 42.4969 34.1823C41.9148 33.586 41.1037 33.2143 40.2067 33.2143H37.2658C35.4994 33.2143 34.0622 34.6513 34.0622 36.4177C34.0622 38.1841 35.4994 39.6212 37.2658 39.6212H38.7547C36.5902 41.3107 34.1287 42.1916 31.4242 42.2365C25.508 42.1891 19.9359 37.8183 19.7667 31.1462ZM26.0117 45.5527V43.5023C27.7056 44.2037 29.5127 44.5671 31.4211 44.5805H31.4294C31.4355 44.5805 31.4416 44.5805 31.4477 44.5804C33.3056 44.5515 35.0647 44.1915 36.7144 43.5118V45.5526C36.7144 46.1924 36.8483 46.8118 37.0948 47.3785H25.6298C25.8772 46.8116 26.0117 46.1921 26.0117 45.5527ZM5.56281 60.3819L5.74781 63.7915C5.78297 64.4379 6.33656 64.9349 6.98141 64.8982C7.62766 64.8632 8.12313 64.3108 8.08813 63.6646L7.47016 52.2791C7.395 50.8941 8.49406 49.7224 9.89203 49.7224H52.8337C54.2214 49.7224 55.3312 50.8837 55.2556 52.2791L54.1544 72.568H35.7781C36.002 71.2294 36.6048 69.9704 37.5334 68.9388L37.567 68.9013C41.1142 64.9329 40.0525 58.7272 35.4675 56.1219C34.2909 55.4535 32.7967 56.2871 32.7967 57.6729V62.9901C32.7967 63.2338 32.5984 63.4319 32.3547 63.4319H30.3709C30.1272 63.4319 29.9289 63.2337 29.9289 62.9901V57.6729C29.9289 56.2897 28.437 55.4521 27.2581 56.1219C22.66 58.7344 21.6198 64.9424 25.1622 68.9052L25.1922 68.9388C26.1208 69.9702 26.7236 71.2293 26.9475 72.5679H8.57141L8.38344 69.1033C8.34844 68.4571 7.79609 67.961 7.14984 67.9966C6.50359 68.0316 6.00812 68.584 6.04312 69.2302L6.22422 72.5679H3.69172C3.55297 72.5679 3.41625 72.5763 3.28141 72.5912V69.3907C3.28141 66.2405 4.07969 63.1368 5.56281 60.3819ZM29.3155 72.5679C29.0756 70.6477 28.2525 68.8351 26.9344 67.3708L26.9061 67.3391C24.6419 64.8063 24.9452 60.8896 27.5853 58.7294V62.9899C27.5853 64.526 28.835 65.7755 30.3711 65.7755H32.3548C33.8909 65.7755 35.1406 64.5258 35.1406 62.9899V58.7294C37.7633 60.8752 38.0992 64.7891 35.8169 67.3424L35.7916 67.3707C34.4733 68.8351 33.6502 70.6477 33.4103 72.5679H29.3155ZM59.0339 77.6076H3.69172C2.94844 77.6076 2.34375 77.0029 2.34375 76.2598C2.34375 75.5166 2.94844 74.9118 3.69172 74.9118H59.0339C59.7772 74.9118 60.3819 75.5165 60.3819 76.2598C60.3819 77.003 59.7772 77.6076 59.0339 77.6076Z" fill="white"/>
<path d="M78.828 8.06879C79.4752 8.06879 79.9999 7.54411 79.9999 6.89692V4.62879C79.9999 2.10348 77.9454 0.0489502 75.4199 0.0489502H55.7104C53.1849 0.0489502 51.1304 2.10348 51.1304 4.62879V14.4863C51.1304 17.0118 53.1849 19.0663 55.7104 19.0663C56.1616 19.0663 56.5288 19.4335 56.5288 19.8847V25.9808C56.5288 26.8613 57.0988 27.6107 57.9474 27.8455C58.801 28.0818 59.6729 27.7264 60.123 26.9758L64.6277 19.4638C64.7747 19.2186 65.0438 19.0663 65.3297 19.0663H75.4201C77.9455 19.0663 80.0001 17.0118 80.0001 14.4863V12.3757C80.0001 11.7285 79.4754 11.2038 78.8282 11.2038C78.181 11.2038 77.6563 11.7285 77.6563 12.3757V14.4863C77.6563 15.7194 76.6532 16.7225 75.4201 16.7225H65.3296C64.2249 16.7225 63.1857 17.3111 62.6176 18.2585L58.8724 24.5038V19.8847C58.8724 18.1411 57.4538 16.7225 55.7102 16.7225C54.4771 16.7225 53.474 15.7194 53.474 14.4863V4.62879C53.474 3.39583 54.4771 2.3927 55.7102 2.3927H75.4199C76.653 2.3927 77.6562 3.39583 77.6562 4.62879V6.89692C77.6562 7.54411 78.1808 8.06879 78.828 8.06879Z" fill="white"/>
</g>
<defs>
<clipPath id="clip0_382_674">
<rect width="80" height="80" fill="white"/>
</clipPath>
</defs>
</svg>
